<svg width="350" height="59" viewBox="0 0 350 59" fill="none" xmlns="http://www.w3.org/2000/svg">
<g clip-path="url(#clip0_178_44)">
<path d="M29.0443 52.7266C26.1196 52.7266 23.3056 51.5745 21.245 49.4917L6.17812 34.447C5.92701 34.1959 5.69066 33.93 5.46909 33.6493C4.93732 33.0068 4.47202 32.2977 4.09535 31.5444C3.342 29.9934 2.96533 28.3094 2.96533 26.6255C2.96533 23.8115 4.02888 20.9754 6.20028 18.8262C10.4988 14.5055 17.5004 14.5055 21.8211 18.8262L29.0443 26.0716L36.2897 18.8262C40.6104 14.5055 47.612 14.5055 51.9105 18.8262C55.3449 22.2605 56.0539 27.4232 53.9933 31.5444C53.6388 32.2977 53.1735 33.0068 52.6195 33.6715C52.398 33.9374 52.1616 34.1959 51.9105 34.447L51.3123 35.0452L36.8658 49.4917C34.783 51.5745 31.9912 52.7266 29.0443 52.7266Z" fill="#619E90"/>
<path d="M18.8741 53.6351C19.8268 49.8905 20.6466 32.4971 17.3452 26.271C14.8858 21.618 12.2269 16.8542 10.6094 11.7802C10.0777 10.0962 9.25785 7.74758 10.1441 5.99716C11.252 3.8036 12.9138 6.21873 13.9773 7.50385C17.5446 11.8023 20.8239 18.3165 26.6291 19.934C31.8803 21.4185 34.7829 17.8069 40.012 14.9265C41.5408 14.0624 46.0387 10.4064 47.9886 12.9545C49.7168 15.2589 43.4464 19.225 41.3414 22.7037C39.9234 25.0302 38.7269 27.7333 38.173 29.7275C35.8243 38.5904 40.0785 44.7722 41.2971 53.4356" fill="white"/>
<path d="M33.52 11.9351C33.52 15.3473 30.7504 18.0948 27.3603 18.0948C23.9703 18.0948 21.2228 15.3473 21.2228 11.9351C21.2228 8.5451 23.9703 5.79761 27.3603 5.79761C30.7504 5.79761 33.52 8.5451 33.52 11.9351Z" fill="white"/>
<path d="M30.0414 24.011C30.0414 25.3847 28.9335 26.4926 27.5598 26.4926C26.2082 26.4926 25.1003 25.3847 25.1003 24.011C25.1003 22.6594 26.2082 21.5515 27.5598 21.5515C28.9335 21.5515 30.0414 22.6594 30.0414 24.011Z" fill="#619E90"/>
<path d="M29.7754 31.633C29.7754 32.8517 28.7784 33.8487 27.5597 33.8487C26.3411 33.8487 25.344 32.8517 25.344 31.633C25.344 30.4144 26.3411 29.4395 27.5597 29.4395C28.7784 29.4395 29.7754 30.4144 29.7754 31.633Z" fill="#619E90"/>
<path d="M29.5095 38.6566C29.5095 39.7423 28.6454 40.6064 27.5597 40.6064C26.4962 40.6064 25.6099 39.7423 25.6099 38.6566C25.6099 37.5931 26.4962 36.7068 27.5597 36.7068C28.6454 36.7068 29.5095 37.5931 29.5095 38.6566Z" fill="#619E90"/>
<path d="M30.0634 45.1043C30.0634 45.9906 29.3544 46.6997 28.4681 46.6997C27.5818 46.6997 26.8728 45.9906 26.8728 45.1043C26.8728 44.2181 27.5818 43.509 28.4681 43.509C29.3544 43.509 30.0634 44.2181 30.0634 45.1043Z" fill="#619E90"/>
<path d="M32.0576 50.3558C32.0576 51.1313 31.4151 51.7739 30.6174 51.7739C29.8419 51.7739 29.1993 51.1313 29.1993 50.3558C29.1993 49.5581 29.8419 48.9377 30.6174 48.9377C31.4151 48.9377 32.0576 49.5581 32.0576 50.3558Z" fill="#619E90"/>
</g>
<!-- New Text for AsthaTherapy -->
<text x="60" y="44" font-family="Arial, Helvetica, sans-serif" font-size="32" font-weight="bold" fill="white">Astha<tspan fill="#619E90">Therapy</tspan></text>
<defs>
<clipPath id="clip0_178_44">
<rect width="52.2909" height="48.7458" fill="white" transform="translate(2.85449 5)"/>
</clipPath>
</defs>
</svg>
