<svg width="64" height="64" viewBox="0 0 64 64" fill="none" xmlns="http://www.w3.org/2000/svg">
<path fill-rule="evenodd" clip-rule="evenodd" d="M47.4898 7.63985C45.3578 7.86123 43.2046 9.28085 42.1119 11.1856C41.4214 12.3892 41.19 13.2996 41.1901 14.8125C41.1903 16.9392 41.8083 18.4329 43.3119 19.9404C44.2623 20.8931 45.4828 21.585 46.75 21.8892C47.6989 22.117 49.4019 22.084 50.3125 21.8201C52.8053 21.0979 54.8488 18.9639 55.437 16.4692C56.2988 12.814 54.1281 9.0166 50.5625 7.94135C49.4109 7.59423 48.649 7.51935 47.4898 7.63985ZM47.2635 9.12735C45.8268 9.4301 44.1219 10.6335 43.411 11.8465C41.5835 14.9647 43.0683 19.0764 46.4511 20.2654C49.2575 21.2517 52.242 20.0091 53.5829 17.2959C54.0589 16.3329 54.0625 16.3139 54.0625 14.819C54.0625 13.3379 54.0548 13.2967 53.6039 12.3746C53.1224 11.3899 52.292 10.4375 51.4534 9.9081C50.3505 9.21185 48.4993 8.86685 47.2635 9.12735ZM21.1243 9.35923C20.5033 9.56298 20.0358 9.8676 19.5946 10.3559C18.8424 11.1885 18.8174 11.2797 18.75 13.4375L18.6875 15.4375L16.75 15.5052C15.6844 15.5424 14.6608 15.6384 14.4753 15.7184C13.9589 15.9411 13.1356 16.7391 12.8553 17.2886C12.0716 18.8246 12.7339 20.8251 14.304 21.6651C14.7441 21.9006 15.0731 21.9456 16.75 21.9999L18.6875 22.0625L18.75 24C18.822 26.2321 18.9333 26.575 19.8465 27.3789C20.4068 27.872 21.3413 28.25 22 28.25C23.1416 28.25 24.3805 27.4457 24.9265 26.3501C25.2308 25.7396 25.25 25.5905 25.25 23.8505V22L26.9688 21.9992C28.9364 21.9985 29.4084 21.8999 30.1531 21.3339C31.6608 20.188 31.8793 18.0171 30.63 16.5979C29.8059 15.6616 29.252 15.4744 27.0938 15.4025L25.25 15.341L25.2473 13.5767C25.2449 12.074 25.2069 11.7291 24.9901 11.25C24.6758 10.5544 24.0938 9.9336 23.4411 9.59748C22.9024 9.31985 21.6398 9.1901 21.1243 9.35923ZM21.024 11.003C20.2789 11.4574 20.1309 12.0176 20.1278 14.3974C20.1255 16.1234 20.0913 16.516 19.9286 16.6786C19.7656 16.8415 19.3755 16.875 17.6425 16.875C15.7241 16.875 15.5073 16.898 14.9953 17.1562C14.2853 17.5142 13.967 18.0882 14.0354 18.8872C14.0856 19.4727 14.3636 19.9672 14.8125 20.2692C14.9901 20.3889 15.7353 20.4556 17.3875 20.5C19.0993 20.546 19.7669 20.6077 19.9188 20.734C20.0956 20.8812 20.125 21.2089 20.125 23.0384C20.125 24.9364 20.1534 25.2296 20.3825 25.703C20.5695 26.0892 20.7858 26.3055 21.172 26.4925C21.7956 26.7944 22.111 26.8126 22.6603 26.5786C23.6611 26.1521 23.8676 25.508 23.872 22.7965C23.8745 21.1942 23.9065 20.8794 24.0813 20.734C24.2334 20.6076 24.904 20.5461 26.6341 20.5C28.9225 20.439 28.9889 20.4297 29.3189 20.125C30.3254 19.1954 30.1495 17.7117 28.9648 17.1381C28.4794 16.9032 28.2 16.875 26.3594 16.875C24.9008 16.875 24.239 16.8292 24.0966 16.7187C23.928 16.5877 23.8885 16.1982 23.8528 14.3125C23.8133 12.2364 23.7883 12.0272 23.528 11.607C23.0176 10.7826 21.8481 10.5005 21.024 11.003ZM41.5573 22.1154C39.2768 23.5261 37.7081 25.2331 36.5515 27.5625C35.4709 29.7387 35.2314 30.8682 35.1569 34.1414C35.097 36.7707 35.1026 36.8526 35.3601 37.1101L35.625 37.375H48.375C60.9584 37.375 61.1283 37.3717 61.375 37.125C61.6059 36.8941 61.625 36.7084 61.625 34.6965C61.625 32.0212 61.4858 30.9506 60.9116 29.2129C59.9233 26.2214 57.7456 23.5434 55.0446 21.9979C53.9458 21.3692 53.6719 21.3926 53.1438 22.1601C52.0391 23.7657 50.3768 24.625 48.375 24.625C46.3878 24.625 44.8318 23.8211 43.605 22.1605C43.2663 21.7019 43.0308 21.5 42.8346 21.5C42.6793 21.5 42.1044 21.7769 41.5573 22.1154ZM41.7755 23.6936C40.1333 24.7995 38.5446 26.6812 37.6889 28.5341C36.9435 30.148 36.7359 31.1825 36.6611 33.6562L36.594 35.875H48.3595H60.125V33.9322C60.125 31.1211 59.6949 29.3839 58.5013 27.375C57.6341 25.9154 56.0828 24.3134 54.7993 23.5519L54.286 23.2474L53.4456 24.0592C50.601 26.8075 46.2995 26.8224 43.423 24.0937C42.9338 23.6296 42.5111 23.25 42.4838 23.25C42.4565 23.25 42.1378 23.4496 41.7755 23.6936ZM5.125 30.6441C2.82188 31.2649 0.86725 31.8307 0.78125 31.9016C0.695375 31.9726 0.625 32.1809 0.625 32.3645C0.625 32.8417 6.85413 56.0055 7.07338 56.3437C7.17375 56.4985 7.381 56.6249 7.53413 56.6246C7.68725 56.6245 9.69663 56.1169 11.9994 55.4967C14.9071 54.7137 16.262 54.2935 16.434 54.1215C16.681 53.8745 16.6805 53.869 16.2745 52.312C16.0505 51.4529 15.8378 50.6732 15.8018 50.5794C15.6825 50.2689 17.8046 49.9369 19.875 49.9421C23.2691 49.9507 25.8403 50.8019 28.9375 52.9421C31.8298 54.9406 34.8855 55.8155 37.8903 55.505C39.1229 55.3776 60.1826 49.7915 61.1218 49.3429C61.8903 48.9756 62.7048 48.1256 63.1038 47.2745C63.3834 46.6779 63.4375 46.3902 63.4375 45.5C63.4375 44.6159 63.383 44.3221 63.1129 43.75C62.4173 42.277 61.0963 41.3732 59.5 41.2782C58.493 41.2184 58.6001 41.1922 46.5043 44.4502C44.616 44.9589 43.0058 45.375 42.926 45.375C42.8411 45.375 42.7581 45.0999 42.7259 44.7114C42.6525 43.8256 42.025 42.5176 41.3533 41.8499C41.0559 41.5544 40.25 40.9791 39.5625 40.5716C38.875 40.164 36.8781 38.9196 35.125 37.8061C30.3955 34.8022 28.6424 33.8272 26.285 32.8899C21.6366 31.0416 16.9608 31.0302 12.1076 32.8552L11.1529 33.2144L10.7039 31.5136C10.2488 29.7892 10.0809 29.4922 9.56988 29.5077C9.42825 29.5121 7.42813 30.0235 5.125 30.6441ZM5.53125 32.0421C3.72663 32.5304 2.25 32.9596 2.25 32.9961C2.25013 33.1407 8.09163 54.8832 8.14463 54.9362C8.18925 54.9809 14.8408 53.2751 14.9706 53.1857C14.9888 53.1732 13.7341 48.4154 12.1824 42.6127C10.6306 36.8101 9.30575 31.8516 9.23825 31.5937C9.17063 31.336 9.04725 31.1316 8.96388 31.1396C8.88063 31.1477 7.336 31.5539 5.53125 32.0421ZM17 33.076C15.3596 33.3724 13.6829 33.8295 12.1761 34.391L11.5398 34.6281L13.4503 41.7652C14.501 45.6907 15.3806 48.9222 15.4049 48.9465C15.429 48.9707 15.9806 48.8846 16.6306 48.7551C19.6844 48.147 22.5055 48.3691 25.531 49.4557C26.8769 49.9392 27.951 50.5116 29.5185 51.5806C32.2271 53.428 34.065 54.0502 36.8125 54.0504H38.4375L49.1875 51.1591C55.1 49.569 60.086 48.2114 60.2674 48.1424C60.4488 48.0732 60.8091 47.8306 61.0683 47.6032C62.9735 45.9304 61.7889 42.75 59.2605 42.75C58.8021 42.75 56.147 43.4027 50.5835 44.8831C46.1745 46.0564 42.5606 47.0266 42.5528 47.0394C42.5448 47.0521 42.3794 47.3591 42.1851 47.7217C41.715 48.5994 40.806 49.4274 39.7779 49.9144C39.0158 50.2755 38.827 50.3124 37.75 50.3112C36.7309 50.3101 36.465 50.2637 35.875 49.9839C34.7326 49.4422 24.9491 43.7525 24.7813 43.5322C24.5508 43.2297 24.5885 43.0251 24.9396 42.674C25.1589 42.4547 25.331 42.3839 25.5078 42.44C25.6471 42.4842 28.106 43.8769 30.9719 45.5347C33.8376 47.1927 36.3804 48.62 36.6224 48.7066C36.8645 48.7931 37.4051 48.8665 37.8238 48.8695C40.3735 48.8879 42.0766 46.1295 40.9444 43.8154C40.5458 43.0007 40.124 42.6164 38.6729 41.7455C38.0623 41.379 36.1 40.1529 34.3125 39.0206C28.655 35.4374 26.3295 34.2579 23.375 33.4731C22.0589 33.1235 21.7423 33.0882 19.625 33.0555C18.3531 33.0357 17.1719 33.045 17 33.076Z" fill="#619E90"/>
</svg>
