<svg width="64" height="64" viewBox="0 0 64 64" fill="none" xmlns="http://www.w3.org/2000/svg">
<path d="M30.6134 9.33059C30.7262 9.05547 30.9183 8.82012 31.1652 8.65448C31.4122 8.48884 31.7028 8.40039 32.0001 8.40039C32.2975 8.40039 32.5881 8.48884 32.835 8.65448C33.0819 8.82012 33.274 9.05547 33.3868 9.33059L39.0534 22.9599C39.1595 23.2149 39.3339 23.4358 39.5574 23.5981C39.7809 23.7604 40.0448 23.8579 40.3201 23.8799L55.0348 25.0586C56.3654 25.1653 56.9041 26.8266 55.8908 27.6933L44.6801 37.2986C44.4707 37.4778 44.3146 37.7111 44.229 37.9731C44.1434 38.2351 44.1315 38.5156 44.1948 38.7839L47.6214 53.1439C47.6903 53.432 47.6723 53.7341 47.5696 54.0119C47.4669 54.2898 47.2842 54.531 47.0445 54.705C46.8048 54.8791 46.5189 54.9782 46.2229 54.9899C45.9269 55.0015 45.6341 54.9252 45.3814 54.7706L32.7814 47.0773C32.5462 46.9335 32.2758 46.8575 32.0001 46.8575C31.7244 46.8575 31.454 46.9335 31.2188 47.0773L18.6188 54.7733C18.3661 54.9279 18.0733 55.0042 17.7773 54.9925C17.4813 54.9809 17.1954 54.8817 16.9558 54.7077C16.7161 54.5336 16.5333 54.2924 16.4307 54.0146C16.328 53.7367 16.3099 53.4347 16.3788 53.1466L19.8054 38.7839C19.869 38.5157 19.8573 38.2351 19.7717 37.973C19.6861 37.7109 19.5298 37.4776 19.3201 37.2986L8.10944 27.6933C7.88369 27.5008 7.72013 27.2457 7.63947 26.9602C7.55881 26.6748 7.56469 26.3718 7.65635 26.0897C7.74801 25.8075 7.92134 25.5589 8.15438 25.3754C8.38742 25.1919 8.66969 25.0816 8.96545 25.0586L23.6801 23.8799C23.9554 23.8579 24.2194 23.7604 24.4429 23.5981C24.6663 23.4358 24.8407 23.2149 24.9468 22.9599L30.6134 9.33059Z" stroke="#619E90" stroke-width="2" stroke-linecap="round" stroke-linejoin="round"/>
</svg>
