<svg width="64" height="64" viewBox="0 0 64 64" fill="none" xmlns="http://www.w3.org/2000/svg">
<path fill-rule="evenodd" clip-rule="evenodd" d="M30.6251 1.94452C29.5182 2.18227 27.9593 2.97814 27.1066 3.74089C26.4576 4.32139 26.3285 4.38264 25.5083 4.49902C22.1205 4.97952 19.7883 7.05689 18.9117 10.3751C18.345 12.5204 18.9288 15.9996 20.2837 18.5511L20.7115 19.3566L20.3856 19.5976C20.2063 19.7301 19.8937 20.142 19.6907 20.513C19.3713 21.0971 19.3153 21.347 19.2742 22.3751C19.2351 23.352 19.2726 23.6846 19.4858 24.2501C19.8378 25.184 20.3728 25.7945 21.1891 26.1939C21.7952 26.4904 21.8878 26.5874 22.0026 27.0455C22.5536 29.2455 23.5726 31.1594 24.9688 32.6168C25.6515 33.3293 25.875 33.6488 25.8751 33.9116C25.8751 34.4326 25.5152 36.0754 25.2397 36.8118L24.9976 37.459L22.0423 38.3524C20.4168 38.8438 18.9831 39.3399 18.8561 39.4549C18.7291 39.5698 18.6251 39.7874 18.6251 39.9383C18.6251 40.194 18.5505 40.218 17.5313 40.2906C12.4763 40.651 8.3621 44.1703 7.09685 49.2159C6.83385 50.2645 6.8216 50.5633 6.81722 56.0277C6.81272 61.612 6.81835 61.7484 7.06697 61.9973C7.32135 62.2519 7.33509 62.252 32.0001 62.252C56.6647 62.252 56.679 62.2519 56.9332 61.9973C57.1817 61.7484 57.1875 61.6119 57.183 56.0277C57.1786 50.5633 57.1664 50.2645 56.9034 49.2159C55.9674 45.4832 53.4865 42.5585 50.0386 41.1233C48.9104 40.6535 47.114 40.2542 46.119 40.2518C45.4428 40.2501 45.4213 40.2393 45.2701 39.821C45.0847 39.3081 45.0475 39.2924 41.5634 38.2526C39.9862 37.7819 39.0046 37.4254 38.903 37.2864C38.6646 36.9604 38.2581 35.5668 38.0935 34.5109L37.9488 33.5841L38.5182 33.0734C39.9211 31.8148 41.1754 29.6866 41.789 27.5238C42.0837 26.485 42.0837 26.4849 42.7051 26.197C43.4504 25.8518 44.1649 25.0564 44.4309 24.2758C44.5537 23.9149 44.6246 23.2664 44.6238 22.5091C44.6228 21.5156 44.5726 21.2051 44.3275 20.6788C44.0363 20.0534 43.2312 19.2501 42.8957 19.2501C42.7808 19.2501 42.7531 19.1771 42.8127 19.0314C43.1483 18.2101 43.7701 16.2073 43.9576 15.3436C44.2711 13.8989 44.269 10.7636 43.9536 9.62514C43.4722 7.88727 42.7707 6.62152 41.6441 5.45802C40.0173 3.77814 37.5625 2.49639 34.8843 1.92864C33.8465 1.70864 31.6857 1.71677 30.6251 1.94452ZM30.899 3.75327C29.6611 4.07752 28.9107 4.51089 27.9528 5.45489L27.1457 6.25014H26.3491C23.5963 6.25014 21.4005 7.98152 20.6981 10.7056C20.3398 12.095 20.5133 14.2285 21.1361 16.0925L21.4185 16.9376L21.5815 15.9794C21.873 14.2643 22.5716 12.6984 23.6736 11.2899C24.4742 10.2666 25.901 9.12815 26.385 9.1264C26.5851 9.12565 27.0353 9.3794 27.5725 9.79552C28.6825 10.6555 29.5958 11.1656 30.8362 11.6184C32.2855 12.1473 33.2062 12.2855 35.3751 12.2999C37.2856 12.3125 37.3245 12.3183 38.1615 12.7148C38.6283 12.9359 39.2616 13.3226 39.5686 13.5743C40.1862 14.0804 41.1067 15.3859 41.4483 16.2403L41.6693 16.7928L41.8336 16.3181C42.4049 14.6681 42.5854 11.6378 42.2053 10.0768C41.4532 6.98752 38.9345 4.82339 34.8996 3.79989C33.4602 3.43477 32.172 3.41977 30.899 3.75327ZM25.6105 11.8046C24.3082 13.1293 23.5386 14.8425 23.2406 17.0795C23.1595 17.689 23.1262 18.6188 23.1668 19.1455C23.2316 19.9865 23.2096 20.143 22.9862 20.4268C22.8457 20.6055 22.6046 20.7501 22.4472 20.7501C21.4576 20.7501 21.0595 21.2923 21.0675 22.6291C21.0755 24.0016 21.4006 24.4706 22.5433 24.7583C23.2807 24.944 23.4731 25.1763 23.6318 26.0729C24.0097 28.2069 24.92 30.0533 26.2465 31.3764C27.8492 32.9751 29.5878 33.6789 31.9376 33.6803C33.4865 33.6811 34.4621 33.4691 35.6896 32.8649C38.0106 31.7223 39.7146 29.2375 40.2558 26.2066C40.4387 25.1828 40.6401 24.8956 41.243 24.7993C41.9353 24.6885 42.4857 24.3151 42.6951 23.8139C42.9087 23.3026 42.9311 22.0733 42.737 21.5161C42.5686 21.033 42.2789 20.8654 41.5245 20.8145C40.7701 20.7636 40.5596 20.494 40.4516 19.4394C40.2058 17.0415 39.094 15.1403 37.5042 14.4001C36.8698 14.1048 36.7042 14.0839 35.1917 14.1079C32.0785 14.1575 29.4265 13.3658 27.0433 11.6753L26.274 11.1296L25.6105 11.8046ZM27.6251 34.6795C27.6251 35.0926 27.1518 36.8736 26.8468 37.6085L26.4646 38.5295L26.8791 41.321L27.2937 44.1126L27.9906 44.2118C28.8978 44.341 34.9805 44.3405 35.8896 44.2111L36.5915 44.1114L36.7871 42.837C36.8947 42.1362 37.0812 40.8842 37.2016 40.0548L37.4203 38.5469L37.0731 37.6798C36.8821 37.2029 36.6233 36.3438 36.498 35.7705C36.3726 35.1974 36.2516 34.7108 36.2288 34.689C36.2062 34.6674 35.6813 34.8253 35.0626 35.04C33.9896 35.4124 33.8481 35.4304 32.0001 35.4293C30.2655 35.4282 29.9578 35.3944 29.0626 35.1073C28.5126 34.9309 27.9642 34.7443 27.8438 34.6925C27.7235 34.6408 27.6251 34.6349 27.6251 34.6795ZM22.7501 40.0156C21.6845 40.3425 20.7982 40.6134 20.7807 40.6176C20.7631 40.6218 21.2553 41.637 21.8745 42.8738C22.4936 44.1107 23.0001 45.2623 23.0001 45.4331C23.0001 45.6329 22.7301 46.0574 22.2433 46.623C21.7773 47.1644 21.5216 47.5619 21.5776 47.6574C22.0767 48.5088 27.3142 56.9684 27.4005 57.0627C27.4731 57.1419 27.492 57.119 27.4521 57.0002C27.4176 56.897 26.8198 52.9877 26.1237 48.3126C25.4276 43.6376 24.8196 39.7245 24.7727 39.6169C24.6992 39.4478 24.424 39.502 22.7501 40.0156ZM39.0766 39.792C38.859 40.9823 36.5026 56.8203 36.5307 56.9044C36.5648 57.0068 42.2873 47.8217 42.3436 47.5742C42.3607 47.499 42.0372 47.0548 41.6248 46.5866C41.2125 46.1186 40.8751 45.626 40.8751 45.4918C40.8751 45.3577 41.3785 44.2049 41.9937 42.9301C42.7111 41.4439 43.0587 40.5951 42.9625 40.5641C42.8801 40.5376 42.1376 40.3125 41.3126 40.064C40.4876 39.8155 39.6632 39.5636 39.4807 39.5044C39.1758 39.4053 39.1431 39.4286 39.0766 39.792ZM17.4102 42.0903C16.9408 42.1488 16.2478 42.8679 15.7118 43.8528C15.2903 44.6273 14.914 46.0613 14.7988 47.3316C14.7128 48.2802 14.7147 48.2885 14.9923 48.2159C15.4427 48.0982 16.7253 48.3584 17.4136 48.7071C18.2342 49.123 19.3707 50.2104 19.7902 50.9812C20.2536 51.8325 20.5392 53.1478 20.4591 54.0613C20.4052 54.6747 20.3323 54.8624 20.0552 55.1007C19.71 55.3978 19.5595 55.4038 18.3396 55.1702C17.5095 55.011 17.4147 53.906 18.1992 53.5319C18.6796 53.3029 18.7071 53.1603 18.4282 52.3419C18.0027 51.0933 16.5803 50.0032 15.3751 50.002C14.491 50.0013 13.9441 50.2124 13.2771 50.812C12.4055 51.5958 12.0766 52.4015 12.1562 53.5577C12.1896 54.0416 12.2867 54.5859 12.372 54.767C12.5026 55.0443 12.5792 55.082 12.8573 55.0057C13.6598 54.7853 14.3696 55.5533 13.9893 56.2305C13.7443 56.6671 12.3522 57.2093 11.892 57.0475C11.2872 56.8348 10.5013 55.2748 10.318 53.9232C10.0906 52.2467 11.0111 50.163 12.4291 49.1446L12.9648 48.76L13.036 47.3488C13.1116 45.8498 13.3505 44.7324 13.8277 43.6458L14.1207 42.979L13.5291 43.3223C11.3708 44.575 9.82397 46.5292 8.98547 49.0626C8.70422 49.9123 8.6946 50.0909 8.6531 55.2189L8.61035 60.5002H18.0001C25.4791 60.5002 27.3706 60.4684 27.295 60.3439C27.2428 60.258 25.4677 57.3864 23.3501 53.9627C20.5601 49.4514 19.5001 47.6353 19.5001 47.366C19.5001 47.1064 19.6586 46.8165 20.0263 46.4036C20.3158 46.0785 20.6648 45.6843 20.8018 45.5275L21.0511 45.2423L20.2481 43.6213L19.4452 42.0001L18.629 42.0201C18.18 42.0312 17.6316 42.0628 17.4102 42.0903ZM43.6814 43.6376L42.8608 45.275L43.6388 46.1504C44.1883 46.7687 44.4167 47.1258 44.4167 47.3664C44.4167 47.6616 41.9626 51.7435 37.1028 59.5314L36.4983 60.5002H45.9441H55.3899L55.3471 55.2189C55.3056 50.0783 55.2966 49.9144 55.0129 49.0626C54.3332 47.0233 53.2414 45.3935 51.7729 44.2265C50.9129 43.5432 49.8162 42.9 49.1691 42.6995C48.9025 42.617 48.9029 42.6218 49.2195 43.402C49.6747 44.5237 49.9725 45.7453 50.1498 47.2181L50.3041 48.4986L50.7102 48.6326C50.9337 48.7064 51.3965 49.0185 51.7387 49.3261C53.5291 50.9359 53.1396 53.7863 50.9818 54.8645C49.2871 55.7114 47.3366 55.1227 46.4376 53.4925C46.108 52.8949 46.0629 52.6917 46.0647 51.8127C46.0665 51.0312 46.1256 50.7034 46.3355 50.3127C46.6872 49.6575 47.4432 48.937 48.0397 48.6885L48.5168 48.4898L48.4326 47.7763C48.1525 45.4028 47.4159 43.2407 46.5817 42.3439C46.2914 42.0318 46.1812 42.0001 45.382 42.0001H44.5019L43.6814 43.6376ZM27.6251 46.1497C27.6251 46.1975 28.1032 49.396 28.6876 53.2575C29.272 57.1189 29.7501 60.3282 29.7501 60.3893C29.7501 60.4503 30.7282 60.5002 31.9237 60.5002H34.0972L34.1705 60.0939C34.3115 59.3104 36.2501 46.3789 36.2501 46.2216C36.2501 46.096 35.3438 46.0626 31.9376 46.0626C29.5657 46.0626 27.6251 46.1018 27.6251 46.1497ZM48.31 50.6653C47.7666 51.2087 47.6447 51.8269 47.956 52.4618C48.2383 53.038 48.8979 53.5002 49.4376 53.5002C49.9732 53.5002 50.6361 53.0393 50.9133 52.4742C51.2192 51.8507 51.0894 51.191 50.5557 50.6564C50.1929 50.293 50.075 50.2502 49.4376 50.2502C48.7974 50.2502 48.6831 50.2922 48.31 50.6653Z" fill="#619E90"/>
</svg>
