<svg width="30" height="30" viewBox="0 0 30 30" fill="none" xmlns="http://www.w3.org/2000/svg">
<g clip-path="url(#clip0_557_83)">
<path d="M28.6474 23.2998C26.7585 23.0905 25.1409 22.9977 24.3207 23.0518C23.9555 23.0753 23.6145 23.1124 23.5983 23.1142C23.4222 23.1349 23.2463 23.158 23.0706 23.1835C23.2209 22.6782 23.2971 22.1516 23.2971 21.612C23.2971 18.7994 21.1965 16.5112 18.6144 16.5112C16.0323 16.5112 13.9317 18.7994 13.9317 21.612C13.9317 22.7767 14.2938 23.8902 14.9456 24.7834C14.4042 24.9375 13.8206 24.8308 13.3549 24.4846L11.9953 23.3964C12.1871 23.3567 12.371 23.2751 12.536 23.1526C13.1549 22.693 13.4714 22.006 13.4043 21.2677C13.3409 20.569 12.9332 19.9649 12.341 19.6913L6.678 17.053L6.62163 17.0261C6.60628 16.9321 6.59289 16.8445 6.58077 16.7646L6.56487 16.6605C6.29335 14.8541 6.43053 12.9604 6.96157 11.1841C7.29171 10.0808 7.75443 9.08003 8.33642 8.21041C8.41741 8.09025 8.49326 7.98239 8.56828 7.88066C9.3125 6.87167 10.1622 6.08802 11.0935 5.55162C11.3376 5.41136 11.5859 5.28846 11.8311 5.18638C12.1611 5.04945 12.4338 4.97358 12.653 4.9126C12.7016 4.89908 12.7473 4.88638 12.7898 4.87405C13.1553 4.76856 13.5224 4.69337 13.8825 4.65038C14.6048 4.55889 15.3524 4.57899 16.1053 4.71025C16.5064 4.77888 16.9106 4.7132 17.274 4.52042L20.4335 2.84936C20.6222 2.85704 20.7824 2.91542 20.8982 3.01888C21.0556 3.16117 21.1084 3.37437 21.2131 3.84448C21.2648 4.071 21.299 4.29837 21.3176 4.5396C21.3275 4.66794 21.4191 4.7709 21.5366 4.78568L25.7355 5.3141C26.1026 5.36093 26.3902 5.84105 26.3902 6.40715V10.8929C26.3902 10.9031 26.392 10.9129 26.393 10.9228V13.8769C26.393 14.4593 26.0753 14.9513 25.6992 14.9513H23.9486C23.8114 14.9513 23.7002 15.0724 23.7002 15.2219C23.7002 15.3713 23.8114 15.4924 23.9486 15.4924H25.6992C26.3557 15.4924 26.8898 14.7677 26.8898 13.8769V11.1634H28.8475C28.8498 11.1634 28.852 11.1634 28.8543 11.1633L29.7516 11.1367L29.7584 11.1364C29.8955 11.1324 30.0036 11.008 29.9999 10.8586C29.9962 10.7118 29.8858 10.5955 29.7517 10.5955C29.7494 10.5955 29.7471 10.5955 29.7448 10.5956L28.8442 10.6223H26.887V6.40715C26.887 5.55713 26.4168 4.85619 25.7928 4.77662L21.7912 4.27303C21.769 4.08284 21.7373 3.89866 21.6955 3.71544C21.5856 3.22188 21.5062 2.86527 21.2143 2.60148C20.9955 2.40606 20.7055 2.30591 20.3757 2.30745C20.3389 2.30781 20.3025 2.31708 20.2694 2.33462L17.0568 4.03381C16.7849 4.17802 16.4826 4.22712 16.1831 4.17584C15.4857 4.05425 14.7914 4.02285 14.1158 4.08181C14.1137 3.8338 14.0802 3.59699 14.0131 3.36477C13.8703 2.87985 13.6242 2.58692 13.3394 2.24772C13.1509 2.02331 12.9373 1.76895 12.7059 1.40508C12.4992 1.07964 12.3183 0.728174 12.1682 0.360431C12.0956 0.182798 11.9546 0.0567791 11.7811 0.0146987C11.6088 -0.0271269 11.4333 0.021282 11.2997 0.147507C10.9863 0.443442 10.6925 0.765849 10.4261 1.10642C10.0096 1.64232 9.65131 2.23265 9.35859 2.8644C8.71336 2.50646 8.1989 2.37994 7.82272 2.28754C7.67303 2.2508 7.54378 2.21904 7.43914 2.18088C7.05867 2.04199 6.72246 1.67261 6.43994 1.08298C6.33383 0.861467 6.12609 0.730542 5.89807 0.741719C5.67445 0.752519 5.48226 0.899405 5.39656 1.12498C5.1386 1.80366 5.01208 2.49467 5.02054 3.17874C5.03018 3.95871 5.1857 4.40538 5.35033 4.87831C5.49351 5.28957 5.64156 5.7148 5.70554 6.43162C5.76936 7.14656 5.68214 7.57178 5.59783 7.98301C5.50569 8.43215 5.41868 8.85642 5.57499 9.51285C5.71622 10.1029 6.00885 10.6603 6.44514 11.1718C5.92729 12.985 5.79826 14.9091 6.07485 16.7493L6.08002 16.7832C5.49052 16.5799 4.84377 16.6607 4.30973 17.0147L1.11987 19.1295C1.0027 19.2072 0.965527 19.3736 1.03683 19.5013C1.0751 19.5697 1.137 19.6121 1.20412 19.6256C1.26205 19.6373 1.32382 19.6277 1.37813 19.5917L4.56799 17.4769C5.02934 17.1711 5.60022 17.1295 6.09519 17.3659L6.48085 17.5496L12.1463 20.1892C12.5718 20.3857 12.8644 20.8194 12.91 21.3209C12.9586 21.8562 12.7202 22.3608 12.2561 22.7055C11.9893 22.9037 11.6286 22.9368 11.3149 22.7918L11.1112 22.6977C11.1111 22.6977 11.1111 22.6977 11.1111 22.6977L5.73972 20.2162C5.61334 20.1578 5.46765 20.2221 5.41407 20.3596C5.36051 20.4972 5.41948 20.656 5.54575 20.7144L10.8904 23.1835L13.0642 24.9234C13.0664 24.9251 13.0686 24.9268 13.0708 24.9285C13.7116 25.4069 14.5316 25.5247 15.2644 25.2434L20.2676 23.3229C20.9651 23.1016 21.7042 23.523 21.9175 24.2649C22.1193 24.9674 21.7794 25.7409 21.1434 26.0292L13.4092 28.9611C13.2614 29.0194 13.1136 29.0777 12.9657 29.1358C12.8178 29.1939 12.6698 29.2522 12.5219 29.3106C11.8348 29.5808 11.0612 29.4783 10.4526 29.0364L4.3062 24.5622C3.49604 23.9705 2.4817 23.8779 1.59321 24.3144L0.303202 24.9459L0.146638 25.0225C0.0215146 25.0837 -0.0343503 25.2439 0.0218921 25.3802C0.078112 25.5165 0.225154 25.5773 0.350232 25.516L1.79713 24.8078C2.52833 24.4486 3.36297 24.5248 4.02991 25.0118L10.1768 29.4864C10.6437 29.8254 11.1903 30 11.7401 30C12.0611 30 12.3832 29.9405 12.691 29.8194C12.8388 29.761 12.9866 29.7028 13.1344 29.6447C13.2826 29.5864 13.4308 29.5282 13.5756 29.4709L21.3134 26.5376C21.3176 26.536 21.3218 26.5343 21.326 26.5324C22.2023 26.1406 22.6704 25.0736 22.3916 24.1032C22.3678 24.0207 22.3389 23.9413 22.3062 23.8647C22.4474 23.836 22.5888 23.809 22.7306 23.7838C23.0154 23.7348 23.3252 23.6905 23.6498 23.6524C23.6532 23.652 23.9953 23.6148 24.3503 23.5919C25.145 23.5397 26.7305 23.6315 28.5921 23.8375L29.7162 24.0135C29.8522 24.0347 29.9779 23.9321 29.9974 23.7842C30.0169 23.6363 29.9227 23.4992 29.7869 23.4779L29.7516 23.4724L28.6576 23.3011C28.6542 23.3006 28.6508 23.3002 28.6474 23.2998ZM16.4469 21.6128C16.4469 20.3107 17.4194 19.2514 18.6148 19.2514C19.8101 19.2514 20.7826 20.3107 20.7826 21.6128C20.7826 22.0158 20.6892 22.3955 20.5251 22.7278C20.3905 22.7373 20.255 22.7626 20.1207 22.8059C20.1167 22.8072 20.1126 22.8086 20.1087 22.8102L17.6793 23.7427C16.951 23.3616 16.4469 22.5501 16.4469 21.6128ZM18.6148 18.7103C17.1455 18.7103 15.9501 20.0123 15.9501 21.6128C15.9501 22.5867 16.3933 23.4495 17.071 23.9762L15.4503 24.5983C14.795 23.7763 14.4284 22.7202 14.4284 21.612C14.4284 19.0978 16.3062 17.0523 18.6144 17.0523C20.9225 17.0523 22.8004 19.0978 22.8004 21.612C22.8004 22.187 22.704 22.7456 22.5138 23.2745C22.3433 23.3062 22.1746 23.3409 22.0077 23.377C21.7556 23.076 21.4217 22.8656 21.056 22.7743C21.1992 22.4184 21.2793 22.0257 21.2793 21.6128C21.2794 20.0123 20.084 18.7103 18.6148 18.7103ZM5.92008 1.28227C5.9212 1.28222 5.92246 1.2822 5.9238 1.2822C5.94175 1.2822 5.97799 1.28827 5.99958 1.33334C6.34362 2.05128 6.77485 2.50907 7.28136 2.69394C7.40993 2.74084 7.55059 2.77539 7.71348 2.81538C8.0859 2.90683 8.54939 3.02063 9.14466 3.35277C9.20582 3.38687 9.26964 3.42664 9.33516 3.47145C9.85989 3.82747 10.3031 4.40776 10.6551 5.19702C9.85409 5.69386 9.11458 6.36334 8.45002 7.19256C8.44931 6.84921 8.41866 6.50735 8.35588 6.16975C8.13736 4.99476 7.59335 4.15016 7.17546 3.64852C7.08332 3.53789 6.92625 3.52956 6.82463 3.62994C6.72304 3.73036 6.71542 3.90146 6.8076 4.01211C7.18358 4.46346 7.67291 5.2228 7.86901 6.27717C7.97085 6.82489 7.98082 7.38542 7.90055 7.94433C7.38175 8.7302 6.95502 9.61364 6.62925 10.5771C6.34847 10.197 6.15584 9.79472 6.05578 9.37667C5.92963 8.84692 5.99716 8.51773 6.08263 8.10096C6.17115 7.66935 6.27148 7.18018 6.19998 6.37923C6.12958 5.5905 5.96235 5.11018 5.81484 4.68642C5.65969 4.24083 5.52573 3.85599 5.51726 3.17144C5.5097 2.56123 5.62354 1.94233 5.85557 1.3319C5.86751 1.30046 5.88922 1.28377 5.92008 1.28227ZM11.6732 0.542856C11.6839 0.545445 11.7035 0.553755 11.7143 0.58026C11.8769 0.978742 12.0731 1.35984 12.2975 1.71304C12.5481 2.10715 12.7738 2.37588 12.9729 2.61296C13.2385 2.92927 13.4305 3.1578 13.5397 3.52861C13.5962 3.7243 13.6226 3.92627 13.6195 4.14106C13.303 4.18868 12.982 4.25882 12.6624 4.35106C12.6211 4.363 12.577 4.37527 12.53 4.38835C12.3109 4.44934 12.0107 4.53282 11.654 4.68085C11.468 4.75826 11.2808 4.84717 11.0949 4.94524C10.7433 4.16206 10.3034 3.5597 9.78367 3.14946C10.0623 2.54013 10.4049 1.97116 10.8047 1.4567C11.0544 1.13744 11.3304 0.834551 11.6251 0.556376C11.6373 0.544763 11.65 0.541336 11.6607 0.541336C11.6653 0.541336 11.6695 0.541969 11.6732 0.542856Z" fill="#619E90" stroke="#619E90" stroke-width="0.5"/>
</g>
<defs>
<clipPath id="clip0_557_83">
<rect width="30" height="30" fill="white"/>
</clipPath>
</defs>
</svg>
