<svg width="64" height="64" viewBox="0 0 64 64" fill="none" xmlns="http://www.w3.org/2000/svg">
<path fill-rule="evenodd" clip-rule="evenodd" d="M31.2854 1.54574C31.1575 1.70824 30.4925 3.00437 29.8075 4.42599C28.8892 6.33212 28.4965 7.02512 28.3122 7.06549C28.1747 7.09549 26.8267 7.29437 25.3165 7.50762C23.8065 7.72074 22.4765 7.94574 22.361 8.00762C22.1024 8.14599 21.859 8.80587 21.959 9.09749C21.9997 9.21587 23.0052 10.2971 24.1937 11.5002L26.3544 13.6877L25.8664 16.5627C25.598 18.144 25.3777 19.533 25.3765 19.6495C25.3732 20.0225 25.9265 20.5421 26.3237 20.5391C26.5404 20.5375 27.7617 19.9724 29.3499 19.1389L32.0127 17.7414L34.6624 19.1392C36.2541 19.979 37.4573 20.5381 37.6757 20.5396C38.0728 20.5421 38.6262 20.0221 38.6228 19.6495C38.6217 19.533 38.4013 18.144 38.1329 16.5627L37.6449 13.6877L39.8057 11.5002C40.9942 10.2971 42.0016 9.21112 42.0443 9.08699C42.1588 8.75499 41.8156 8.03799 41.4931 7.93562C41.3394 7.88687 39.9259 7.66374 38.3521 7.43987C36.7782 7.21587 35.4711 7.01124 35.4474 6.98524C35.4238 6.95912 34.8344 5.75987 34.1376 4.32037C33.4407 2.88074 32.7784 1.60099 32.6658 1.47662C32.3564 1.13474 31.578 1.17374 31.2854 1.54574ZM31.0162 6.42849C30.5112 7.48899 29.9748 8.47249 29.8242 8.61399C29.605 8.81987 29.1183 8.93412 27.3884 9.18574C26.1993 9.35874 25.1639 9.50024 25.0875 9.50024C25.0112 9.50024 25.7195 10.2782 26.6617 11.229C27.6844 12.2612 28.3734 13.0545 28.3717 13.1977C28.3699 13.3297 28.211 14.4081 28.0184 15.594C27.8259 16.78 27.6893 17.7502 27.7149 17.7502C27.7405 17.7502 28.7147 17.2581 29.8797 16.6565L31.9979 15.5627L34.0664 16.6252C35.2041 17.2096 36.1788 17.7031 36.2324 17.722C36.2861 17.7407 36.1721 16.7845 35.979 15.597C35.7862 14.4094 35.6274 13.3297 35.6264 13.1977C35.6254 13.0555 36.3219 12.2541 37.3377 11.229C38.2798 10.2782 38.9882 9.50024 38.9118 9.50024C38.8354 9.50024 37.8001 9.35874 36.6109 9.18574C34.8811 8.93412 34.3943 8.81987 34.1752 8.61399C34.0246 8.47249 33.4882 7.48899 32.9832 6.42849C32.4783 5.36799 32.0357 4.50024 31.9997 4.50024C31.9637 4.50024 31.521 5.36799 31.0162 6.42849ZM14.5902 7.88712C14.468 7.95812 13.9414 8.87049 13.4198 9.91449C12.8982 10.9585 12.4534 11.8325 12.4313 11.8565C12.4093 11.8806 11.4207 12.0355 10.2345 12.2005C7.83542 12.5345 7.49967 12.6854 7.49967 13.4301C7.49967 13.7586 7.73979 14.056 9.10554 15.4186L10.7113 17.0209L10.3448 19.1539C9.98004 21.2761 9.97942 21.2885 10.2204 21.6122C10.7237 22.2884 10.9144 22.2567 13.0415 21.144C14.1127 20.5836 15.0395 20.1252 15.1013 20.1252C15.1632 20.1252 16.0352 20.5752 17.0392 21.1252C18.0432 21.6752 18.9718 22.1252 19.1028 22.1252C19.2338 22.1252 19.4892 22.0086 19.6703 21.8661C20.0902 21.536 20.0913 21.2634 19.6835 18.8539L19.3674 16.986L20.9985 15.3994C22.7744 13.6719 22.8935 13.4434 22.3434 12.821C22.0874 12.5314 21.868 12.4759 19.8974 12.2014C18.7068 12.0356 17.7117 11.879 17.686 11.8534C17.6604 11.8277 17.2729 11.0206 16.825 10.0597C16.377 9.09887 15.8999 8.18612 15.7645 8.03149C15.5014 7.73062 14.971 7.66537 14.5902 7.88712ZM48.2348 8.03149C48.0994 8.18612 47.6223 9.09887 47.1743 10.0597C46.7264 11.0206 46.3389 11.8277 46.3133 11.8534C46.2877 11.879 45.2926 12.0356 44.1019 12.2014C42.1313 12.4759 41.9119 12.5314 41.6559 12.821C41.1058 13.4434 41.2249 13.6719 43.0008 15.3994L44.6319 16.986L44.3158 18.8539C43.9081 21.2634 43.9092 21.536 44.3291 21.8661C44.5102 22.0086 44.7656 22.1252 44.8966 22.1252C45.0276 22.1252 45.9562 21.6752 46.9602 21.1252C47.9642 20.5752 48.8362 20.1252 48.8981 20.1252C48.9598 20.1252 49.8867 20.5836 50.9578 21.144C53.0849 22.2567 53.2757 22.2884 53.7789 21.6122C54.0199 21.2885 54.0193 21.2761 53.6546 19.1539L53.2881 17.0209L54.8938 15.4186C56.2596 14.056 56.4997 13.7586 56.4997 13.4301C56.4997 12.6849 56.1617 12.5324 53.7566 12.1922C52.5673 12.0241 51.5794 11.87 51.5612 11.8496C51.5428 11.8294 51.1006 10.9574 50.5782 9.91187C50.0559 8.86649 49.5189 7.95237 49.3848 7.88062C48.9844 7.66637 48.4983 7.73012 48.2348 8.03149ZM14.5013 12.122C14.1947 12.7474 13.828 13.3679 13.6863 13.501C13.5 13.676 13.0519 13.796 12.0685 13.934C11.3204 14.039 10.6869 14.1462 10.6609 14.1724C10.6348 14.1985 11.0672 14.6295 11.6218 15.1302C12.1763 15.631 12.6627 16.1709 12.7027 16.3299C12.7425 16.4889 12.685 17.1476 12.5749 17.7939C12.4648 18.44 12.3747 19.0345 12.3747 19.115C12.3747 19.1954 12.927 18.9775 13.602 18.6307C14.2772 18.284 14.9593 18.0002 15.1179 18.0002C15.2764 18.0002 15.9335 18.2854 16.5779 18.6337C17.2224 18.9822 17.7495 19.2494 17.7495 19.2275C17.7494 19.2056 17.665 18.7096 17.5622 18.1252C17.2357 16.2714 17.2269 16.3016 18.4225 15.1536L19.4705 14.1476L19.0788 14.0797C18.8634 14.0425 18.2255 13.9469 17.6612 13.8675C17.0969 13.788 16.5504 13.6589 16.4467 13.5804C16.3429 13.502 15.9882 12.8859 15.6583 12.2114L15.0585 10.985L14.5013 12.122ZM48.3091 12.2582C47.9671 12.9545 47.5903 13.5761 47.4718 13.6397C47.3067 13.7284 45.0444 14.1102 44.6087 14.123C44.5656 14.1242 45.0014 14.5852 45.5774 15.1474C46.7713 16.3127 46.7621 16.2807 46.4372 18.1252C46.3343 18.7096 46.2499 19.2056 46.2498 19.2275C46.2498 19.2494 46.7769 18.9822 47.4214 18.6337C48.0658 18.2854 48.7328 18.0002 48.9034 18.0002C49.0741 18.0002 49.7562 18.2859 50.4192 18.6349C51.1851 19.038 51.6247 19.209 51.6246 19.1036C51.6244 19.0124 51.5401 18.4596 51.4372 17.8752C51.1503 16.2462 51.1222 16.3314 52.3144 15.2125C52.9002 14.6629 53.3608 14.1947 53.3383 14.1722C53.3158 14.1496 52.6819 14.0404 51.9297 13.9294C51.0739 13.8031 50.4751 13.65 50.3294 13.5201C50.2014 13.4061 49.8344 12.7907 49.5138 12.1526L48.9309 10.9926L48.3091 12.2582ZM6.74967 21.4084C6.53729 21.5132 6.19917 22.0284 5.69467 23.0152L4.95204 24.4677L3.47367 24.6865C1.72942 24.9446 1.37529 25.1414 1.37354 25.8531C1.37254 26.271 1.47692 26.4116 2.52129 27.4L3.67004 28.4872L3.38492 30.0606C3.22804 30.9259 3.13492 31.7743 3.17804 31.9456C3.22654 32.1391 3.42629 32.3385 3.70442 32.4711L4.15267 32.6849L5.66317 31.8859L7.17379 31.0868L8.69429 31.884C10.0658 32.603 10.2465 32.6668 10.5382 32.5339C10.7159 32.4529 10.9525 32.2476 11.0638 32.0779C11.2523 31.7901 11.2457 31.657 10.9662 30.1325L10.6663 28.4959L11.835 27.4669C13.019 26.4242 13.2143 26.1244 13.0738 25.5644C12.9502 25.0721 12.5437 24.906 10.8962 24.6742L9.35517 24.4575L8.62667 23.0042C8.09192 21.9376 7.81042 21.5111 7.56804 21.4006C7.16329 21.2162 7.13804 21.2165 6.74967 21.4084ZM56.3948 21.405C56.2041 21.4986 55.8494 22.0532 55.3737 23.0021L54.6449 24.456L53.0444 24.6879C51.2462 24.9484 50.8747 25.1529 50.8747 25.8819C50.8747 26.2989 50.9268 26.359 52.5098 27.7672L53.3324 28.4991L53.0328 30.134C52.7537 31.6571 52.7471 31.7901 52.9356 32.0779C53.0468 32.2476 53.2837 32.4531 53.4619 32.5343C53.7544 32.6675 53.9346 32.6044 55.3098 31.8865L56.8337 31.091L58.3402 31.888L59.8467 32.6849L60.2949 32.4711C60.5731 32.3385 60.7728 32.1391 60.8213 31.9456C60.8644 31.7743 60.7713 30.9259 60.6144 30.0606L60.3293 28.4872L61.4781 27.4C62.5224 26.4116 62.6268 26.271 62.6258 25.8531C62.6241 25.1381 62.2638 24.9379 60.5146 24.6797L59.0338 24.4611L58.3608 23.097C57.9906 22.3467 57.6032 21.6567 57.4999 21.5637C57.2221 21.3135 56.7266 21.2424 56.3948 21.405ZM29.6872 23.4534C29.4809 23.4844 28.7612 23.619 28.0878 23.7525C20.1987 25.3176 13.9874 31.7165 12.6257 39.6816C12.288 41.657 12.2855 44.329 12.6195 46.2829C13.2175 49.7804 14.6804 52.9264 16.9929 55.6878C17.4535 56.2378 17.8832 56.7831 17.9475 56.8998C18.1434 57.2545 19.7462 58.5938 20.9332 59.3945C23.0038 60.7914 25.6113 61.8824 28.2497 62.456C29.7775 62.7883 34.2218 62.7883 35.7497 62.456C41.2686 61.2561 45.4408 58.3679 48.5533 53.5928C51.6879 48.7836 52.4983 42.4663 50.6901 36.935C49.7219 33.9736 48.1121 31.3626 45.8747 29.1252C43.1269 26.3775 39.8538 24.5966 35.9709 23.7367C35.085 23.5406 34.2529 23.4704 32.4372 23.4386C31.1309 23.4159 29.8934 23.4225 29.6872 23.4534ZM6.77554 25.1989C6.56629 25.6135 6.31229 26.0214 6.21117 26.1052C6.11017 26.1892 5.68154 26.3187 5.25879 26.3932L4.49029 26.5286L5.13279 27.208C5.70067 27.8085 5.76692 27.9337 5.70329 28.2875C5.66379 28.5076 5.59304 28.9359 5.54629 29.2391L5.46129 29.7906L6.15192 29.3954C7.01742 28.9002 7.32704 28.9007 8.20942 29.3986L8.91529 29.797L8.82754 29.3674C8.53117 27.9159 8.53142 27.9151 9.24842 27.1891L9.90854 26.5206L9.29779 26.4389C8.21754 26.2942 8.02117 26.161 7.57042 25.2669L7.15604 24.4451L6.77554 25.1989ZM56.4124 25.2931C55.9862 26.1572 55.7817 26.2944 54.7016 26.4389L54.0908 26.5206L54.7509 27.1891C55.4678 27.9149 55.4681 27.9165 55.1724 29.364L55.0854 29.7903L55.8148 29.3953C56.7227 28.9035 56.9934 28.9024 57.8511 29.3864L58.5352 29.7724L58.4516 29.2301C58.4056 28.9317 58.3356 28.5076 58.2961 28.2875C58.2324 27.9337 58.2987 27.8085 58.8666 27.208L59.5091 26.5286L58.7406 26.3932C57.8073 26.2289 57.7027 26.1476 57.2377 25.2265C57.0361 24.827 56.8558 24.5002 56.8372 24.5002C56.8186 24.5002 56.6274 24.857 56.4124 25.2931ZM30.5612 25.3795C24.9304 25.8391 19.8418 28.974 16.8723 33.8127C15.7844 35.5854 14.9425 37.8361 14.5549 40.0086C14.2747 41.5781 14.2747 44.4224 14.5549 45.9919C15.0004 48.4883 16.1963 51.3879 17.521 53.184L18.1637 54.0551L18.3782 53.2716C19.0475 50.8264 20.6052 48.9584 22.8457 47.914C24.2079 47.2791 26.5302 46.759 28.0309 46.7528L28.6247 46.7503V46.3128C28.6247 46.0721 28.5765 45.8753 28.5178 45.8753C28.4589 45.8753 28.035 45.5309 27.5757 45.11C25.7975 43.4806 24.7215 41.4198 24.3205 38.8752C24.2285 38.2909 24.0008 37.0815 23.8145 36.1877C23.3812 34.1084 23.4135 32.9981 23.9388 31.9204C24.6548 30.4516 26.1585 29.3827 28.2453 28.8592C29.172 28.6269 29.5448 28.6017 31.2453 28.6577C33.4785 28.7312 34.4272 28.9634 35.4416 29.6846C35.7824 29.927 36.1792 30.1252 36.3231 30.1252C36.8031 30.1252 38.0879 30.8725 38.6605 31.4848C39.3657 32.2386 39.6974 32.881 40.0074 34.0929C40.3187 35.31 40.3119 36.3722 39.9874 37.2502C39.8476 37.6284 39.6494 38.3877 39.5471 38.9377C39.2857 40.3414 38.7463 41.8435 38.1325 42.8765C37.5733 43.8179 36.3936 45.1587 35.7162 45.623C35.3612 45.8662 35.3103 45.9648 35.3527 46.328C35.3798 46.5603 35.4212 46.7503 35.4444 46.7503C35.4678 46.7503 36.1302 46.8346 36.9164 46.9376C41.8452 47.5838 44.5578 49.5849 45.5689 53.3206L45.7881 54.13L46.4537 53.2214C47.8096 51.3705 48.9967 48.5011 49.4444 45.9919C49.7247 44.4224 49.7247 41.5781 49.4444 40.0086C47.8258 30.9391 39.6879 24.6346 30.5612 25.3795ZM29.4327 30.6305C27.293 30.9105 25.7677 31.9859 25.5214 33.3879C25.4345 33.8821 25.6572 35.9494 25.8142 36.1064C25.8453 36.1376 26.142 35.9094 26.4734 35.5994C27.1614 34.9559 27.8174 34.6929 28.5048 34.7851C28.7667 34.8202 29.5714 35.0799 30.2933 35.3621C31.0152 35.6444 31.755 35.8752 31.9373 35.8752C32.1197 35.8752 32.9162 35.6221 33.7074 35.3127C34.4987 35.0034 35.3399 34.7502 35.5768 34.7502C36.2141 34.7502 36.8379 35.057 37.5517 35.7212L38.1872 36.3127L38.2295 35.8127C38.2812 35.2031 38.049 34.0921 37.7463 33.5002C37.3229 32.6722 36.3433 32.0002 35.5599 32.0002C35.1833 32.0002 34.4997 31.6746 34.4997 31.4953C34.4997 30.9023 31.3992 30.3731 29.4327 30.6305ZM27.2088 37.6627L26.2303 38.5654L26.422 39.3917C26.927 41.5697 28.6617 44.0071 29.962 44.3661C30.2053 44.4334 30.516 44.5894 30.6525 44.713C30.8518 44.8932 31.1024 44.9352 31.919 44.9251C32.8393 44.9136 33.0213 44.868 33.8122 44.4503C35.3298 43.6486 36.4312 42.3049 37.1094 40.4272C37.7678 38.6046 37.7801 38.6763 36.6294 37.6371L35.6302 36.7349L34.1315 37.3051C32.1451 38.0609 31.7312 38.0616 29.763 37.3127C28.9499 37.0034 28.2627 36.7525 28.2359 36.7552C28.209 36.7579 27.7469 37.1664 27.2088 37.6627ZM31.8582 46.8434L30.5293 46.8834L30.4519 47.27C30.257 48.2446 30.6315 49.9389 31.1583 50.4658C31.559 50.8665 32.2754 50.9051 32.6352 50.5452C33.0944 50.086 33.7249 46.7091 33.3387 46.7768C33.2554 46.7914 32.5892 46.8214 31.8582 46.8434ZM26.6872 48.8368C25.7822 48.9685 24.2498 49.4109 23.5262 49.7491C22.5399 50.2103 21.3987 51.2861 20.8964 52.2283C20.5043 52.9641 20.0757 54.368 19.9333 55.3831L19.8533 55.9535L20.8694 56.7581C24.5532 59.6751 29.0751 61.057 33.5309 60.6274C37.1303 60.2803 40.2586 59.0296 43.0576 56.8185C44.1288 55.9723 44.1267 55.9794 43.8018 54.407C43.5254 53.0688 43.0058 51.9989 42.2376 51.1866C41.4569 50.3613 40.6522 49.8789 39.3429 49.4516C38.5602 49.1963 36.2143 48.7503 35.6533 48.7503C35.5837 48.7503 35.4283 49.158 35.3081 49.6565C35.0416 50.7614 34.7582 51.3475 34.2401 51.8656C32.7569 53.3488 30.1779 53.1639 29.0737 51.4953C28.8909 51.2191 28.6114 50.5025 28.4527 49.9029L28.1638 48.8128L27.613 48.7975C27.31 48.789 26.8934 48.8068 26.6872 48.8368Z" fill="#619E90"/>
</svg>
