<svg width="31" height="31" viewBox="0 0 31 31" fill="none" xmlns="http://www.w3.org/2000/svg">
<g clip-path="url(#clip0_109_2482)">
<path fill-rule="evenodd" clip-rule="evenodd" d="M18.2017 0.908119C18.1009 1.00896 18.0846 1.10341 18.0846 1.58458C18.0846 2.10408 18.095 2.15441 18.232 2.2914C18.3405 2.39986 18.414 2.42822 18.5104 2.39874C18.7698 2.31917 18.7877 2.26855 18.7877 1.61318C18.7877 1.07892 18.7716 0.970346 18.6805 0.887904C18.5364 0.757533 18.3442 0.765619 18.2017 0.908119ZM15.565 1.37687C15.4129 1.52898 15.42 1.60193 15.6445 2.19718C15.7924 2.58923 15.867 2.71181 15.9948 2.77316C16.1329 2.83943 16.1774 2.83785 16.2928 2.76232C16.3673 2.71345 16.4416 2.62246 16.4579 2.56011C16.4943 2.42119 16.1869 1.51369 16.0536 1.36644C15.9267 1.22617 15.7111 1.2308 15.565 1.37687ZM20.8515 1.40294C20.7158 1.57538 20.414 2.40273 20.4395 2.53222C20.4495 2.58279 20.525 2.67443 20.6073 2.73589C20.7254 2.82402 20.7888 2.83538 20.9082 2.78997C21.0268 2.74492 21.099 2.62925 21.242 2.25472C21.4511 1.70716 21.4689 1.49394 21.3172 1.35665C21.1646 1.21855 20.9822 1.23665 20.8515 1.40294ZM13.2248 2.72095C13.028 2.91783 13.0714 3.03185 13.5537 3.5855C13.9141 3.99917 14.0445 4.06357 14.2495 3.92921C14.5015 3.7641 14.4441 3.54372 14.0232 3.06097C13.6134 2.59099 13.432 2.51376 13.2248 2.72095ZM22.8669 3.06144C22.4551 3.54548 22.4037 3.70386 22.5963 3.8964C22.8313 4.13148 22.9982 4.03503 23.5429 3.34913C23.7905 3.03742 23.8245 2.8522 23.661 2.70431C23.4405 2.5048 23.2785 2.57763 22.8669 3.06144ZM17.5373 3.13749C14.9119 3.57812 12.8598 5.844 12.6586 8.52437C12.59 9.43773 12.8219 10.6025 13.2362 11.4257C13.5086 11.967 13.8407 12.426 14.3678 12.9893C14.9076 13.5664 15.2078 13.9906 15.4279 14.4876C15.6325 14.9496 15.7994 15.6302 15.7994 16.0026C15.7994 16.3001 15.7909 16.3168 15.5923 16.411C15.2007 16.5969 14.9205 17.076 14.9205 17.5597C14.9205 17.671 14.993 17.9051 15.0816 18.08C15.2797 18.4708 15.6523 18.7237 16.092 18.7659C16.3747 18.7931 16.3825 18.7988 16.3406 18.9477C16.27 19.1993 16.3004 19.6748 16.3993 19.8644C16.5155 20.0871 16.7695 20.3431 16.9993 20.4692C17.143 20.548 17.3912 20.57 18.315 20.5856C19.5863 20.6071 19.8233 20.5688 20.166 20.2863C20.54 19.9779 20.7123 19.3644 20.547 18.9295C20.4929 18.7875 20.5001 18.7792 20.6788 18.7789C21.2579 18.7779 21.8161 18.3485 21.9469 17.8034C22.0788 17.2534 21.8232 16.6851 21.328 16.427L21.0631 16.289L21.1007 15.9374C21.1919 15.084 21.5881 14.1288 22.1262 13.4651C22.4351 13.0842 22.4902 12.8808 22.3284 12.7189C22.1692 12.5598 21.9245 12.605 21.727 12.83C21.0094 13.6472 20.5147 14.7771 20.3984 15.8642L20.3561 16.2597H19.5719H18.7877V14.1031V11.9466L19.2309 11.8721C20.5279 11.6542 21.7471 10.8972 22.6589 9.74371C22.7856 9.58339 22.8892 9.39888 22.8892 9.33355C22.8892 9.00589 21.7919 7.90978 20.9784 7.42486C19.0869 6.29728 16.8404 6.51935 15.124 8.00353C14.6858 8.3824 14.0637 9.07884 14.0225 9.23664C13.931 9.58644 15.0911 10.7671 16.0568 11.3072C16.5294 11.5715 17.137 11.7844 17.6693 11.8724L18.0846 11.9409V14.1003V16.2597H17.2935H16.5025V15.9705C16.5025 15.2703 16.1596 14.2276 15.692 13.5058C15.5354 13.2641 15.1746 12.8158 14.8902 12.5097C14.0974 11.6562 13.7094 10.9701 13.4762 10.0094C13.3429 9.46064 13.3439 8.27581 13.478 7.76359C13.977 5.85689 15.3142 4.47601 17.1763 3.94439C17.572 3.83142 17.7776 3.81121 18.4947 3.8146C19.2411 3.81818 19.407 3.83769 19.8604 3.97544C21.3185 4.41841 22.4337 5.37378 23.0609 6.71716C23.383 7.40699 23.4786 7.8063 23.5161 8.61894C23.5658 9.69378 23.392 10.4578 22.8898 11.373C22.6277 11.8506 22.6058 11.9784 22.762 12.1197C22.9383 12.2793 23.1575 12.2413 23.3245 12.0224C23.5432 11.7356 23.9295 10.8797 24.0754 10.3584C24.1852 9.96619 24.2029 9.75437 24.2021 8.84757C24.2012 7.86923 24.1897 7.75562 24.0428 7.27796C23.2598 4.73048 21.0091 3.05288 18.415 3.083C18.0882 3.08675 17.6933 3.1113 17.5373 3.13749ZM11.5221 4.77531C11.2623 5.03505 11.4132 5.24804 12.1222 5.62275C12.5521 5.84997 12.5631 5.85238 12.715 5.75288C12.8326 5.67583 12.8697 5.60318 12.8697 5.45007C12.8697 5.25929 12.8431 5.23287 12.3698 4.95337C11.8187 4.62777 11.6954 4.60193 11.5221 4.77531ZM24.565 4.93855C24.3104 5.09048 24.0758 5.25683 24.0437 5.30822C23.9537 5.4523 24.0463 5.70859 24.2164 5.78611C24.3499 5.84687 24.4124 5.8314 24.7275 5.65931C25.3029 5.34501 25.4674 5.20199 25.4674 5.01578C25.4674 4.83027 25.3082 4.65706 25.1405 4.66023C25.0786 4.6614 24.8196 4.78662 24.565 4.93855ZM10.6318 7.28019C10.4786 7.45872 10.4641 7.51667 10.5347 7.6716C10.6084 7.8332 10.7166 7.87304 11.4298 8.00095L11.8356 8.07372L11.9718 7.9154C12.2536 7.58775 12.085 7.39251 11.4131 7.26824C10.7955 7.15404 10.7394 7.15492 10.6318 7.28019ZM25.4433 7.27175C25.0137 7.35712 24.8228 7.47636 24.8228 7.65935C24.8228 7.81433 24.9179 7.97693 25.0347 8.02175C25.1773 8.07648 26.1819 7.88224 26.3023 7.77671C26.4359 7.65964 26.4335 7.39749 26.2977 7.27462C26.173 7.16171 26.0003 7.16113 25.4433 7.27175ZM17.5865 7.50706C16.7467 7.68208 15.6727 8.34296 15.0162 9.08869L14.8039 9.32986L15.0525 9.61222C15.6549 10.2966 16.6717 10.9253 17.5024 11.1272C18.603 11.3946 19.964 11.1187 20.9263 10.4331C21.268 10.1898 22.0689 9.41089 22.0689 9.32212C22.0689 9.21947 21.1814 8.38902 20.8133 8.14732C19.8352 7.50495 18.6884 7.27738 17.5865 7.50706ZM18.039 8.0255C17.3113 8.25267 16.9318 9.00958 17.1601 9.77828C17.2543 10.0954 17.6863 10.5275 18.0035 10.6217C18.588 10.7953 19.2266 10.6022 19.5515 10.1537C19.7402 9.8933 19.8776 9.37679 19.8197 9.14599C19.7861 9.01216 19.7607 8.99792 19.6213 9.03513C19.0529 9.18689 18.579 8.75552 18.7313 8.2249C18.7712 8.08568 18.7663 8.02064 18.7137 7.98718C18.6079 7.91997 18.3255 7.93603 18.039 8.0255ZM11.2291 9.78121C10.679 9.88363 10.5843 9.92464 10.5226 10.0869C10.4634 10.2426 10.5119 10.3843 10.669 10.5146C10.7972 10.6211 11.8397 10.4342 11.9974 10.2765C12.1404 10.1335 12.1379 9.9615 11.9908 9.81437C11.8597 9.6833 11.7749 9.6796 11.2291 9.78121ZM24.9531 9.78841C24.7942 9.89962 24.7797 10.1677 24.9254 10.2982C24.9817 10.3487 25.2721 10.4348 25.5707 10.4893C26.0729 10.5811 26.1243 10.5814 26.2591 10.4931C26.4336 10.3787 26.4558 10.1127 26.3023 9.97468C26.246 9.92394 25.9794 9.84074 25.7099 9.78982C25.1092 9.6762 25.1132 9.67621 24.9531 9.78841ZM11.9665 12.2066C11.4604 12.5097 11.3476 12.6596 11.4523 12.8894C11.5709 13.1498 11.7622 13.1361 12.3111 12.828C12.9012 12.4967 13.0128 12.3007 12.7675 12.0263C12.6271 11.8693 12.4712 11.9045 11.9665 12.2066ZM24.1197 12.0409C23.8608 12.2998 23.9999 12.5096 24.6621 12.8589C25.1499 13.1162 25.1598 13.1186 25.3124 13.0187C25.4899 12.9024 25.5238 12.6331 25.3793 12.4886C25.2495 12.3588 24.443 11.9237 24.3322 11.9237C24.2798 11.9237 24.1842 11.9765 24.1197 12.0409ZM2.07692 15.4606C1.55197 15.606 1.11252 16.0003 0.941603 16.4793C0.879084 16.6545 0.862619 17.5094 0.860568 20.6891C0.858107 24.4819 0.863264 24.6838 0.965158 24.776C1.11094 24.9079 1.28608 24.8978 1.4202 24.7497C1.52701 24.6317 1.53311 24.4558 1.56112 20.6628L1.59041 16.6991L1.72688 16.5078C1.99963 16.1254 2.06344 16.1132 3.78768 16.1132C5.23506 16.1132 5.35389 16.1212 5.53934 16.2304C5.80658 16.3878 5.95893 16.6047 6.0184 16.9125C6.09287 17.2979 6.08608 26.5047 6.01108 26.8544C5.93748 27.1974 5.6877 27.4804 5.37779 27.5717C5.24256 27.6116 4.61449 27.6278 3.66 27.6161C2.24069 27.5986 2.146 27.5906 1.99008 27.475C1.64854 27.2217 1.56112 27.0137 1.56112 26.4542C1.56112 26.0262 1.54143 25.9185 1.43965 25.7891C1.29803 25.609 1.09324 25.589 0.954963 25.7419C0.803088 25.9097 0.81967 26.9797 0.979689 27.3339C1.12459 27.6548 1.45078 28.0031 1.76619 28.1738C1.99195 28.296 2.06631 28.3007 3.78768 28.3007C5.52686 28.3007 5.58135 28.2972 5.82053 28.1693C6.41824 27.8499 6.70869 27.3511 6.7602 26.5557L6.7943 26.0291L7.41504 26.0589C7.76233 26.0756 8.12608 26.1268 8.2408 26.1752C8.3536 26.2227 9.59285 26.9289 10.9947 27.7445C14.2644 29.6467 14.1463 29.5909 14.8912 29.5855L15.4771 29.5812L20.4576 27.7494C23.1969 26.742 25.6754 25.8316 25.9654 25.7263C26.5661 25.5084 26.7172 25.3544 26.5945 25.0851C26.5569 25.0025 26.4651 24.9195 26.3906 24.9008C26.2976 24.8775 24.5998 25.4728 20.9833 26.7969C18.0838 27.8585 15.5683 28.7696 15.3932 28.8215C14.9892 28.9414 14.7318 28.9384 14.3638 28.8095C14.2027 28.7531 12.8712 28.0108 11.4049 27.1599C9.93856 26.309 8.60701 25.5618 8.44588 25.4993C8.2408 25.4198 7.94637 25.3768 7.46444 25.3557L6.77596 25.3256V21.6716V18.0175H7.67801C9.05367 18.0175 8.88744 17.9368 11.7138 19.9769C13.2308 21.072 14.2252 21.7507 14.4384 21.8364C14.7659 21.9681 14.8349 21.972 17.2935 22.0012C19.7007 22.0298 19.8222 22.0366 20.018 22.1515C20.1306 22.2177 20.2848 22.3627 20.3605 22.4738C20.4779 22.6458 20.4939 22.7259 20.4686 23.0147C20.4292 23.4662 20.333 23.5957 19.9469 23.7174C19.6631 23.8069 19.3147 23.8183 16.8636 23.8183C14.1783 23.8183 14.0968 23.8216 13.983 23.9355C13.8332 24.0853 13.8339 24.2552 13.985 24.4062C14.1022 24.5235 14.154 24.5252 17.1344 24.5087L20.1646 24.4921L20.4576 24.3389C20.8628 24.127 27.626 21.8847 27.8598 21.8847C28.4675 21.8847 28.983 22.4225 28.983 23.0566C28.983 23.6444 28.6853 23.985 27.9384 24.2517C27.2586 24.4944 27.1692 24.5569 27.1675 24.7906C27.1663 24.9501 27.3429 25.1074 27.5228 25.1071C27.7085 25.1069 28.4992 24.81 28.8287 24.617C29.3517 24.3105 29.6343 23.8253 29.6736 23.1663C29.7093 22.5688 29.5902 22.2159 29.2136 21.8038C28.8742 21.4325 28.4694 21.2372 27.9531 21.1957C27.6144 21.1686 27.4449 21.2178 24.4668 22.2081C22.7452 22.7806 21.3071 23.2599 21.2712 23.2732C21.2283 23.2891 21.1962 23.1498 21.1779 22.8694C21.1334 22.1881 20.831 21.7426 20.2232 21.4629C19.9355 21.3304 19.8854 21.3275 17.4107 21.2987C15.0111 21.2709 14.8786 21.2636 14.6263 21.1469C14.4807 21.0794 13.3601 20.3023 12.1361 19.4199C10.9122 18.5376 9.77813 17.7436 9.61612 17.6555C9.11883 17.3853 8.72215 17.3144 7.70871 17.3144H6.79108L6.75299 16.9775C6.67752 16.3109 6.3201 15.8092 5.72426 15.5335C5.47699 15.419 5.34475 15.4091 3.90487 15.3972C2.77588 15.3879 2.27701 15.4052 2.07692 15.4606ZM15.8388 17.0825C15.5309 17.3247 15.601 17.8625 15.9599 18.0112C16.0801 18.0609 16.792 18.0753 18.5395 18.0634L20.9531 18.0468L21.1045 17.8953C21.3545 17.6453 21.3064 17.2018 21.013 17.0501C20.8716 16.9769 20.4521 16.9628 18.4177 16.9628C16.0625 16.9628 15.9865 16.9663 15.8388 17.0825ZM17.2543 18.8689C17.0607 18.974 16.945 19.2885 17.0237 19.4955C17.0545 19.5765 17.1531 19.7005 17.2429 19.771C17.3997 19.8944 17.4486 19.8986 18.5122 19.8812L19.6184 19.8632L19.7597 19.6988C19.9618 19.4636 19.9501 19.1709 19.7297 18.9505L19.5584 18.7792L18.4846 18.7816C17.6612 18.7834 17.3742 18.8037 17.2543 18.8689Z" fill="#619E90"/>
</g>
<defs>
<clipPath id="clip0_109_2482">
<rect width="30" height="30" fill="white" transform="translate(0.271973 0.205078)"/>
</clipPath>
</defs>
</svg>
