<svg width="31" height="31" viewBox="0 0 31 31" fill="none" xmlns="http://www.w3.org/2000/svg">
<g clip-path="url(#clip0_109_2488)">
<path fill-rule="evenodd" clip-rule="evenodd" d="M15.1664 1.26713C15.0779 1.31863 15.0639 1.42146 15.0639 2.01537C15.0639 2.75629 15.095 2.84447 15.3568 2.84447C15.6187 2.84447 15.6498 2.75635 15.6498 2.01449C15.6498 1.39293 15.6387 1.31922 15.5365 1.26449C15.3961 1.18937 15.2988 1.19008 15.1664 1.26713ZM11.5482 2.02416C11.3964 2.17603 11.3978 2.19232 11.6166 2.78295C11.8441 3.39707 11.9248 3.50031 12.1594 3.47723C12.4563 3.44799 12.4778 3.25059 12.2511 2.63418C11.9941 1.93545 11.8029 1.76945 11.5482 2.02416ZM18.7948 1.98021C18.6531 2.08398 18.2709 3.12572 18.313 3.29348C18.3518 3.4481 18.605 3.53793 18.7497 3.4484C18.8011 3.41658 18.9276 3.17822 19.0309 2.91877C19.3038 2.23305 19.3133 2.17205 19.1705 2.02926C19.0301 1.88881 18.9363 1.87656 18.7948 1.98021ZM8.51442 4.04898C8.44276 4.09914 8.38417 4.19447 8.38417 4.2608C8.38417 4.42926 9.24509 5.30541 9.41061 5.30541C9.59132 5.30541 9.75362 5.10736 9.71126 4.93855C9.6713 4.77918 8.84589 3.95775 8.72571 3.95775C8.68112 3.95775 8.58602 3.99883 8.51442 4.04898ZM14.619 4.01459C12.7888 4.22049 11.1623 5.08709 10.0198 6.4651C7.85501 9.07609 7.84979 12.798 10.0074 15.3911C10.7719 16.3099 11.1574 16.849 11.4475 17.405L11.7533 17.991L11.7881 20.8621C11.8195 23.447 11.835 23.7918 11.9437 24.3214C12.1731 25.4396 12.5728 26.3837 13.1996 27.2882C13.9636 28.3908 15.1609 29.9741 15.2543 30.0055C15.3107 30.0244 15.4029 30.0244 15.4594 30.0055C15.5535 29.9738 17.088 27.9419 17.2904 27.5807C17.3388 27.4945 17.4871 27.2518 17.6201 27.0415C18.1755 26.1635 18.5017 25.3529 18.7031 24.3505C18.7963 23.8865 18.8249 23.3596 18.8719 21.2429C18.903 19.8411 18.9378 18.5747 18.9492 18.4287C18.9748 18.1017 19.3912 17.2048 19.7942 16.609C19.9558 16.37 20.2982 15.9292 20.555 15.6293C22.6764 13.1522 22.9183 9.71811 21.1567 7.08766C20.559 6.19521 19.4543 5.21975 18.4916 4.73435C17.3606 4.16412 15.8257 3.87883 14.619 4.01459ZM21.4718 4.37957C21.2325 4.61154 21.0213 4.86309 21.0024 4.93855C20.96 5.10736 21.1223 5.30541 21.303 5.30541C21.4686 5.30541 22.3295 4.42926 22.3295 4.2608C22.3295 4.13553 22.1291 3.95775 21.9879 3.95775C21.9433 3.95775 21.7111 4.1476 21.4718 4.37957ZM14.2233 4.69176C12.2801 5.06008 10.629 6.26787 9.75485 7.96041C9.23923 8.95873 9.0287 9.81988 9.0287 10.9304C9.0287 12.6238 9.55686 13.9618 10.7764 15.3578C11.344 16.0075 11.8996 16.8563 12.1706 17.4879L12.3978 18.0176L13.2035 18.0189L14.0092 18.0203V15.0906V12.1609H13.6543C12.9453 12.1609 12.4924 11.9302 12.2436 11.4425C12.0678 11.0979 12.1055 10.5115 12.3247 10.1801C12.7844 9.48555 13.7849 9.43393 14.3484 10.0758C14.5723 10.3307 14.6529 10.6072 14.6533 11.1208L14.6537 11.5163H15.3568H16.0599L16.0603 11.1208C16.0607 10.5941 16.1437 10.3231 16.3875 10.0534C16.6612 9.75039 16.9369 9.62963 17.355 9.62963C17.7825 9.62963 18.1564 9.82867 18.3889 10.1801C18.6057 10.5077 18.6459 11.0985 18.4741 11.4336C18.2299 11.9099 17.866 12.1123 17.1879 12.1492L16.7045 12.1756V15.0979V18.0203H17.5461H18.3878L18.4901 17.7419C18.7539 17.0244 19.3082 16.1683 20.2383 15.0418C21.2004 13.8764 21.6826 12.5094 21.6842 10.9426C21.6856 9.54109 21.3521 8.46566 20.5596 7.31611C20.2223 6.82691 19.4 6.01615 18.9197 5.69939C18.3692 5.33629 17.5315 4.96264 16.9096 4.80285C16.1597 4.61014 14.9236 4.55904 14.2233 4.69176ZM14.0092 5.57805C13.5857 5.69137 13.4385 5.83228 13.5151 6.05119C13.5565 6.16955 13.6177 6.21889 13.7408 6.23301C13.9152 6.25305 14.3273 6.17002 14.6105 6.05781C14.8181 5.97561 14.8805 5.75189 14.7395 5.59603C14.6187 5.46262 14.4557 5.45857 14.0092 5.57805ZM12.3086 6.33683C11.5073 6.86389 10.7307 7.7384 10.3382 8.55572C10.104 9.04322 10.0933 9.19656 10.2845 9.32189C10.4972 9.46129 10.6339 9.355 10.8742 8.86346C11.2611 8.07191 11.875 7.37605 12.6615 6.83728C13.0137 6.59605 13.0885 6.42332 12.9208 6.2381C12.7775 6.07967 12.6742 6.09631 12.3086 6.33683ZM6.52897 7.06674C6.36409 7.12855 6.30181 7.33047 6.40165 7.47953C6.44466 7.54381 6.72356 7.70342 7.02145 7.83432C7.62321 8.09869 7.82888 8.1032 7.89157 7.85348C7.94929 7.6235 7.88167 7.53654 7.52061 7.37641C6.84081 7.07482 6.65888 7.01799 6.52897 7.06674ZM23.4799 7.24105C22.8547 7.51697 22.7982 7.5601 22.7982 7.76178C22.7982 8.11949 23.0166 8.14047 23.689 7.84732C24.2351 7.6092 24.3803 7.5042 24.3803 7.34711C24.3803 7.2226 24.1809 7.00293 24.0726 7.0082C24.0324 7.01019 23.7656 7.11496 23.4799 7.24105ZM13.0867 10.2876C13.0144 10.3166 12.9009 10.427 12.8346 10.5329C12.6639 10.8052 12.7117 11.1407 12.9518 11.3552C13.1144 11.5006 13.175 11.5163 13.5707 11.5163H14.0092V11.071C14.0092 10.6427 14.0016 10.6181 13.8099 10.4265C13.6015 10.218 13.3702 10.1736 13.0867 10.2876ZM16.9037 10.4265C16.7121 10.6181 16.7045 10.6427 16.7045 11.071V11.5163H17.143C17.5386 11.5163 17.5992 11.5006 17.7619 11.3552C18.0017 11.1409 18.0497 10.8052 17.8794 10.5334C17.6504 10.168 17.2104 10.1198 16.9037 10.4265ZM5.68722 10.7577C5.65188 10.8238 5.63114 10.9352 5.64122 11.0052C5.67227 11.2209 5.89593 11.2875 6.52862 11.2693C7.01975 11.2551 7.11696 11.2359 7.1878 11.1389C7.29632 10.9904 7.29309 10.8438 7.17884 10.7295C7.10589 10.6566 6.94792 10.6374 6.41917 10.6374C5.80593 10.6374 5.74634 10.6472 5.68722 10.7577ZM23.5348 10.7295C23.4206 10.8438 23.4173 10.9904 23.5258 11.1389C23.5967 11.2359 23.6939 11.2551 24.185 11.2693C24.8177 11.2875 25.0414 11.2209 25.0724 11.0052C25.0825 10.9352 25.0618 10.8238 25.0264 10.7577C24.9673 10.6472 24.9077 10.6374 24.2945 10.6374C23.7657 10.6374 23.6078 10.6566 23.5348 10.7295ZM14.6537 15.0906V18.0203H15.3568H16.0599V15.0906V12.1609H15.3568H14.6537V15.0906ZM6.97827 14.1132C6.53899 14.3113 6.41044 14.397 6.36702 14.5205C6.32384 14.6433 6.33515 14.7024 6.4197 14.7958C6.47888 14.8612 6.57134 14.9148 6.62513 14.9148C6.75702 14.9148 7.68444 14.5134 7.81288 14.4006C8.00724 14.2302 7.88319 13.8584 7.63294 13.8612C7.5788 13.8618 7.28425 13.9752 6.97827 14.1132ZM22.8952 13.9673C22.7581 14.1187 22.775 14.3109 22.9345 14.4154C23.0095 14.4646 23.2898 14.5996 23.5575 14.7156C23.9532 14.8871 24.0692 14.9151 24.1778 14.8656C24.3388 14.7923 24.408 14.6073 24.3293 14.4602C24.275 14.3587 23.2258 13.8601 23.0666 13.8601C23.0256 13.8601 22.9485 13.9083 22.8952 13.9673ZM12.4857 19.2214V19.7781H13.101H13.7162V19.2214V18.6648H13.101H12.4857V19.2214ZM14.3607 19.2214V19.7781H15.4447H16.5287V19.2214V18.6648H15.4447H14.3607V19.2214ZM17.1732 19.2214V19.7781H17.7006H18.2279V19.2214V18.6648H17.7006H17.1732V19.2214ZM12.4275 21.8728C12.4278 23.5386 12.4941 24.1737 12.7529 24.9929C12.9674 25.6719 13.1409 26.0502 13.4984 26.6189C13.7941 27.0892 13.8085 27.1023 14.0298 27.1023C14.2382 27.1023 14.2539 27.0913 14.2181 26.9704C14.0224 26.3121 13.8313 25.4442 13.7793 24.9776C13.7446 24.6663 13.7162 23.5009 13.7162 22.3878V20.364H13.0717H12.4271L12.4275 21.8728ZM14.3607 22.5829C14.3607 25.022 14.3891 25.3268 14.7233 26.4724L14.9069 27.1023H15.4465H15.9862L16.1733 26.4619C16.4972 25.3538 16.5282 25.0137 16.5285 22.5759L16.5287 20.364H15.4447H14.3607V22.5829ZM17.1732 22.4411C17.1732 24.7795 17.1124 25.4697 16.8193 26.4562C16.721 26.7872 16.6538 27.0712 16.67 27.0873C16.7875 27.2048 17.2623 26.5581 17.5822 25.8452C18.0979 24.6957 18.2271 23.9005 18.2276 21.8728L18.2279 20.364H17.7006H17.1732V22.4411ZM14.4295 27.9372C14.5072 28.042 14.7398 28.3584 14.9466 28.6404C15.1532 28.9224 15.3378 29.1531 15.3568 29.1531C15.3758 29.1531 15.5604 28.9224 15.7671 28.6404C15.9738 28.3584 16.2065 28.042 16.2842 27.9372L16.4254 27.7468H15.3568H14.2883L14.4295 27.9372Z" fill="#619E90"/>
</g>
<defs>
<clipPath id="clip0_109_2488">
<rect width="30" height="30" fill="white" transform="translate(0.356934 0.61792)"/>
</clipPath>
</defs>
</svg>
