<svg width="31" height="31" viewBox="0 0 31 31" fill="none" xmlns="http://www.w3.org/2000/svg">
<path fill-rule="evenodd" clip-rule="evenodd" d="M14.2956 2.06957C10.8944 2.42137 8.07723 3.68219 5.9351 5.81125C4.30215 7.4343 3.15617 9.50324 2.57352 11.8803C2.29045 13.0352 2.20361 13.7993 2.20361 15.1356C2.20361 17.3716 2.61635 19.185 3.57061 21.1415C5.20912 24.501 8.16248 26.8442 11.9488 27.7891C14.3322 28.3839 16.3194 28.3936 18.5437 27.8213C20.8447 27.2292 22.9761 25.9877 24.6437 24.2681C25.3021 23.5892 25.6676 23.1313 26.2039 22.3134C27.2472 20.7222 27.9163 18.9623 28.2206 17.0085C28.3654 16.0796 28.3654 14.1917 28.2206 13.2627C28.0165 11.9522 27.6334 10.6867 27.085 9.51063C26.8163 8.93447 26.6776 8.78746 26.41 8.79508C26.2012 8.801 25.9558 9.02693 25.9558 9.21338C25.9558 9.27191 26.0878 9.59623 26.2492 9.93414C27.0413 11.5922 27.4844 13.6889 27.398 15.37C27.1778 19.6553 25.2672 23.1774 22.0118 25.2994C19.8495 26.7088 16.9835 27.4225 14.3103 27.2171C9.27482 26.8304 5.28963 23.7838 3.75676 19.1493C3.28537 17.7241 3.07531 16.3785 3.07988 14.8134C3.08352 13.5753 3.15951 13.0169 3.48729 11.821C4.60367 7.74766 8.06691 4.4268 12.3477 3.32494C13.5357 3.01914 14.3562 2.93055 15.6726 2.96582C17.4692 3.01399 18.7281 3.31252 20.3246 4.06891C20.7239 4.25817 21.0982 4.41297 21.1562 4.41297C21.2142 4.41297 21.3335 4.35121 21.4212 4.27574C21.6139 4.11004 21.6347 3.83102 21.4685 3.64281C21.2421 3.38664 19.6327 2.71943 18.5814 2.44598C17.2535 2.10063 15.4918 1.94588 14.2956 2.06957ZM24.403 2.75899C24.2611 2.78682 20.7536 6.26248 20.6793 6.44893C20.6466 6.53067 20.6617 7.01682 20.7189 7.73195L20.8111 8.88344L17.8226 11.8777C16.179 13.5245 14.8161 14.9332 14.7939 15.0081C14.7005 15.3241 15.0446 15.6682 15.3606 15.5748C15.4355 15.5526 16.8442 14.1897 18.491 12.5461L21.4853 9.55768L22.6368 9.64979C23.3519 9.70703 23.8381 9.72209 23.9198 9.68945C24.1135 9.61229 27.5852 6.10328 27.6041 5.9657C27.6313 5.76742 27.5425 5.53293 27.4143 5.46432C27.3472 5.42834 26.8145 5.36043 26.2306 5.31338C25.6467 5.26633 25.1624 5.22121 25.1543 5.21307C25.1462 5.20498 25.1009 4.72 25.0535 4.13529C25.0062 3.55059 24.9399 3.02072 24.9062 2.95774C24.8364 2.82736 24.5769 2.72483 24.403 2.75899ZM22.8463 5.5692L21.5825 6.84461L21.6516 7.71051C21.6897 8.18676 21.7365 8.59217 21.7558 8.61139C21.775 8.63061 22.1868 8.67672 22.6711 8.71375L23.5514 8.78119L24.8195 7.51211L26.0877 6.24297L25.5383 6.20447C24.2434 6.11371 24.2712 6.14184 24.1549 4.80748L24.1101 4.29373L22.8463 5.5692ZM14.187 6.32383C11.0674 6.7474 8.63674 8.42108 7.31059 11.0586C7.0093 11.6579 6.66436 12.7135 6.52402 13.4657C6.37396 14.2703 6.37232 16.0493 6.52098 16.8055C6.88906 18.6787 7.6642 20.1691 8.931 21.4396C10.4043 22.9173 12.2171 23.7379 14.5593 23.9877C16.4386 24.1881 18.5046 23.6494 20.2173 22.5124C20.957 22.0213 22.1176 20.8615 22.6072 20.1238C24.3002 17.5735 24.5969 14.4454 23.4121 11.6385C23.08 10.8515 22.89 10.6044 22.6171 10.6044C22.3989 10.6044 22.1472 10.8369 22.1472 11.0385C22.1472 11.1018 22.2624 11.3838 22.4033 11.6651C22.7011 12.2598 22.9229 12.8952 23.0689 13.5716C23.2152 14.249 23.2137 15.8513 23.0662 16.5419C22.7042 18.2366 21.9712 19.5961 20.7737 20.7934C19.6062 21.9609 18.3842 22.6323 16.8151 22.9684C16.1356 23.1139 14.4859 23.1142 13.756 22.9687C10.3119 22.2828 7.7576 19.5371 7.32061 16.0513C7.23242 15.3477 7.27373 14.1759 7.40979 13.5243C7.72777 12.0013 8.41385 10.7564 9.57529 9.595C11.2425 7.92783 13.3419 7.0941 15.6433 7.18527C16.816 7.23174 17.6681 7.44918 18.7036 7.96615C18.985 8.10666 19.2669 8.22156 19.3302 8.22156C19.5318 8.22156 19.7643 7.96984 19.7643 7.75158C19.7643 7.47877 19.5172 7.28875 18.7302 6.95658C17.2365 6.32611 15.7227 6.11529 14.187 6.32383ZM14.5616 10.5133C12.5626 10.8046 11.0208 12.261 10.6608 14.1981C10.57 14.6863 10.57 15.5849 10.6608 16.0731C11.0494 18.1642 12.7531 19.6306 14.9902 19.7995C17.3466 19.9774 19.5213 18.1772 19.8709 15.7592C19.9628 15.1233 19.8685 14.0767 19.6852 13.698C19.4769 13.2676 19.0739 13.2125 18.8323 13.5813C18.74 13.7221 18.7402 13.754 18.8356 14.0938C19.0855 14.9848 18.9897 15.9423 18.5611 16.8348C18.1183 17.757 17.2347 18.4705 16.1999 18.7416C15.9878 18.7971 15.6043 18.8337 15.2331 18.8337C14.8619 18.8337 14.4784 18.7971 14.2663 18.7416C13.2307 18.4703 12.3307 17.7436 11.8974 16.8286C11.3516 15.6763 11.3543 14.5371 11.9051 13.4364C12.3954 12.4568 13.3913 11.6922 14.4714 11.4664C14.9974 11.3563 15.7484 11.3834 16.248 11.5304C16.6585 11.6511 16.8826 11.5884 16.993 11.322C17.0998 11.0642 16.9741 10.8116 16.6727 10.6782C16.2328 10.4837 15.2773 10.409 14.5616 10.5133Z" fill="#619E90"/>
</svg>
