<svg width="160" height="160" viewBox="0 0 160 160" fill="none" xmlns="http://www.w3.org/2000/svg">
<path d="M71.209 74.5222H56.678C55.756 74.5222 54.907 75.0272 54.466 75.8372L51.814 80.7162L43.914 43.5352C43.914 43.5332 43.913 43.5312 43.913 43.5292L43.904 43.4862C43.893 43.4352 43.871 43.3892 43.857 43.3392C43.828 43.2352 43.8 43.1312 43.759 43.0322C43.73 42.9642 43.692 42.9032 43.658 42.8392C43.615 42.7592 43.576 42.6782 43.525 42.6022C43.485 42.5432 43.438 42.4922 43.394 42.4372C43.335 42.3642 43.278 42.2902 43.212 42.2242C43.168 42.1812 43.119 42.1442 43.072 42.1042C42.995 42.0382 42.919 41.9722 42.834 41.9152C42.782 41.8812 42.726 41.8552 42.672 41.8242C42.586 41.7762 42.501 41.7252 42.409 41.6872C42.329 41.6532 42.244 41.6332 42.161 41.6082C42.096 41.5892 42.035 41.5602 41.967 41.5462C41.959 41.5442 41.95 41.5452 41.942 41.5432C41.849 41.5242 41.754 41.5202 41.659 41.5122C41.586 41.5062 41.514 41.4922 41.442 41.4922C41.383 41.4922 41.322 41.5042 41.262 41.5082C41.154 41.5162 41.045 41.5222 40.94 41.5432C40.934 41.5442 40.927 41.5442 40.921 41.5452C40.87 41.5562 40.825 41.5782 40.775 41.5922C40.672 41.6212 40.568 41.6482 40.47 41.6902C40.395 41.7212 40.328 41.7632 40.257 41.8012C40.185 41.8402 40.112 41.8752 40.044 41.9202C39.972 41.9682 39.909 42.0252 39.843 42.0792C39.784 42.1282 39.723 42.1742 39.668 42.2292C39.61 42.2872 39.561 42.3522 39.508 42.4162C39.457 42.4782 39.403 42.5382 39.358 42.6052C39.311 42.6752 39.274 42.7512 39.234 42.8252C39.197 42.8942 39.157 42.9592 39.126 43.0322C39.085 43.1292 39.058 43.2322 39.029 43.3342C39.015 43.3852 38.992 43.4322 38.981 43.4842L38.972 43.5272C38.972 43.5292 38.971 43.5312 38.971 43.5332L31.07 80.7132L28.419 75.8352L22.509 64.9662C22.072 64.1632 21.234 63.6592 20.32 63.6512C20.312 63.6512 20.305 63.6512 20.297 63.6512C19.391 63.6512 18.554 64.1382 18.107 64.9272L12.666 74.5212H7.518C6.127 74.5222 5 75.6492 5 77.0402C5 78.4312 6.127 79.5582 7.518 79.5582H14.13C15.037 79.5582 15.873 79.0712 16.32 78.2822L20.248 71.3562L23.992 78.2422L29.901 89.1122C30.346 89.9302 31.199 90.4272 32.112 90.4272C32.232 90.4272 32.354 90.4182 32.475 90.4002C33.518 90.2492 34.356 89.4642 34.576 88.4322L41.442 56.1212L48.307 88.4322C48.526 89.4642 49.364 90.2482 50.408 90.4002C50.529 90.4182 50.651 90.4272 50.771 90.4272C51.683 90.4272 52.537 89.9302 52.982 89.1122L58.177 79.5572H71.212C72.603 79.5572 73.73 78.4302 73.73 77.0392C73.73 75.6482 72.6 74.5222 71.209 74.5222Z" fill="#619E90"/>
<path d="M113.821 131.734C114.168 130.972 114.498 130.159 114.801 129.32C118.573 118.775 124.558 110.28 132.109 104.755C141.252 98.0613 148.3 87.8953 151.953 76.1293C160.646 48.0663 150.267 22.5043 126.714 13.9673C113.235 9.08626 97.8574 10.9663 86.5764 18.8773C76.3904 26.0203 70.7804 37.1213 70.7804 50.1363C70.7804 52.2553 72.5044 53.9793 74.6234 53.9793C76.7424 53.9793 78.4664 52.2553 78.4664 50.1363C78.4664 39.7003 82.9134 30.8343 90.9884 25.1723C100.252 18.6753 112.938 17.1523 124.093 21.1953C143.589 28.2603 152.026 49.9133 144.61 73.8523C141.442 84.0553 135.389 92.8263 127.565 98.5513C118.773 104.988 111.855 114.731 107.562 126.729C107.346 127.335 107.098 127.949 106.823 128.551C104.364 133.953 99.9734 138.11 94.7754 139.959C90.2254 141.575 85.4144 141.318 81.2234 139.24C73.3764 135.369 69.1914 125.674 71.2734 116.186C71.4934 115.184 71.3094 114.155 70.7554 113.291C70.2014 112.426 69.3454 111.829 68.3424 111.609C68.0644 111.547 67.7834 111.517 67.5054 111.517C66.7844 111.517 66.0784 111.722 65.4554 112.119C64.5864 112.673 63.9854 113.532 63.7634 114.539C60.8884 127.64 66.6674 140.632 77.8174 146.132C81.2624 147.838 84.9464 148.704 88.7694 148.704C91.6634 148.704 94.5514 148.198 97.3524 147.202C104.503 144.658 110.505 139.02 113.821 131.734Z" fill="#619E90"/>
<path d="M113.214 32.0156C108.305 32.0156 103.384 33.6996 99.3569 36.7566C89.1489 44.5046 87.9249 58.5236 96.3799 70.8496C97.1559 71.9826 98.8319 72.3026 99.9759 71.5186C101.149 70.7146 101.449 69.1006 100.644 67.9236C94.8839 59.5286 93.2179 47.9076 102.483 40.8736C108.907 35.9986 119.426 35.5606 124.846 42.6756L124.847 42.6766C125.709 43.8106 127.334 44.0286 128.47 43.1646C129.019 42.7466 129.372 42.1386 129.465 41.4556C129.557 40.7716 129.377 40.0936 128.96 39.5456C125.314 34.7596 119.576 32.0156 113.214 32.0156Z" fill="#619E90"/>
<path d="M110.611 91.737C112.722 90.593 114.647 89.088 116.334 87.263C118.069 85.385 119.502 83.222 120.593 80.834C122.986 75.59 123.604 70.037 122.334 65.198C120.98 60.047 117.526 55.89 112.606 53.495C111.327 52.871 109.774 53.406 109.15 54.688C108.526 55.969 109.062 57.52 110.344 58.146C113.937 59.894 116.354 62.788 117.334 66.514C118.303 70.202 117.79 74.525 115.891 78.685C115.026 80.578 113.897 82.283 112.534 83.754C111.235 85.161 109.759 86.317 108.149 87.19C106 88.355 104.029 89.91 102.293 91.811C100.699 93.56 99.3026 95.595 98.1456 97.86L97.8386 98.405C96.7336 100.175 95.1096 101.396 93.2386 101.888C91.4246 102.364 89.5846 102.097 88.0606 101.135C86.4076 100.096 85.6616 98.607 85.3286 97.541C84.8476 96.012 84.8876 94.306 85.4426 92.741C85.6736 92.09 85.6376 91.389 85.3406 90.765C85.0436 90.143 84.5216 89.672 83.8706 89.441C83.5926 89.343 83.3046 89.292 83.0106 89.292C81.9156 89.292 80.9356 89.983 80.5706 91.013C79.6446 93.627 79.5826 96.497 80.3966 99.095C81.2396 101.771 82.9836 104.05 85.3076 105.509C88.0136 107.217 91.3796 107.721 94.5506 106.887C97.7006 106.06 100.41 104.048 102.178 101.219C102.285 101.048 102.385 100.879 102.481 100.709C102.572 100.548 102.662 100.382 102.747 100.216C103.698 98.355 104.83 96.701 106.111 95.296C107.46 93.822 108.974 92.624 110.611 91.737Z" fill="#619E90"/>
</svg>
