<svg width="350" height="59" viewBox="0 0 350 59" fill="none" xmlns="http://www.w3.org/2000/svg">
<!-- Icon remains unchanged -->
<g clip-path="url(#clip0_106_34)">
<path d="M29.0443 52.7264C26.1196 52.7264 23.3056 51.5742 21.245 49.4914L6.17812 34.4467C5.92701 34.1956 5.69066 33.9297 5.46909 33.6491C4.93732 33.0065 4.47202 32.2975 4.09535 31.5441C3.342 29.9931 2.96533 28.3092 2.96533 26.6253C2.96533 23.8113 4.02888 20.9752 6.20028 18.8259C10.4988 14.5053 17.5004 14.5053 21.8211 18.8259L29.0443 26.0713L36.2897 18.8259C40.6104 14.5053 47.612 14.5053 51.9105 18.8259C55.3449 22.2603 56.0539 27.4229 53.9933 31.5441C53.6388 32.2975 53.1735 33.0065 52.6195 33.6712C52.398 33.9371 52.1616 34.1956 51.9105 34.4467L51.3123 35.045L36.8658 49.4914C34.783 51.5742 31.9912 52.7264 29.0443 52.7264Z" fill="#619E90"/>
<path d="M18.8741 53.6348C19.8268 49.8903 20.6466 32.4969 17.3452 26.2707C14.8858 21.6177 12.2269 16.8539 10.6094 11.7799C10.0777 10.096 9.25785 7.74733 10.1441 5.99692C11.252 3.80336 12.9138 6.21849 13.9773 7.5036C17.5446 11.8021 20.8239 18.3163 26.6291 19.9338C31.8803 21.4183 34.7829 17.8067 40.012 14.9263C41.5408 14.0621 46.0387 10.4062 47.9886 12.9543C49.7168 15.2586 43.4464 19.2247 41.3414 22.7034C39.9234 25.0299 38.7269 27.7331 38.173 29.7272C35.8243 38.5901 40.0785 44.772 41.2971 53.4354" fill="#153C33"/>
<path d="M33.52 11.9354C33.52 15.3476 30.7504 18.0951 27.3603 18.0951C23.9703 18.0951 21.2228 15.3476 21.2228 11.9354C21.2228 8.54534 23.9703 5.79785 27.3603 5.79785C30.7504 5.79785 33.52 8.54534 33.52 11.9354Z" fill="#153C33"/>
<path d="M30.0414 24.0107C30.0414 25.3845 28.9335 26.4923 27.5598 26.4923C26.2082 26.4923 25.1003 25.3845 25.1003 24.0107C25.1003 22.6591 26.2082 21.5513 27.5598 21.5513C28.9335 21.5513 30.0414 22.6591 30.0414 24.0107Z" fill="#619E90"/>
<path d="M29.7754 31.633C29.7754 32.8517 28.7784 33.8487 27.5597 33.8487C26.3411 33.8487 25.344 32.8517 25.344 31.633C25.344 30.4144 26.3411 29.4395 27.5597 29.4395C28.7784 29.4395 29.7754 30.4144 29.7754 31.633Z" fill="#619E90"/>
<path d="M29.5095 38.6569C29.5095 39.7426 28.6454 40.6067 27.5597 40.6067C26.4962 40.6067 25.6099 39.7426 25.6099 38.6569C25.6099 37.5933 26.4962 36.707 27.5597 36.707C28.6454 36.707 29.5095 37.5933 29.5095 38.6569Z" fill="#619E90"/>
<path d="M30.0634 45.1046C30.0634 45.9909 29.3544 46.6999 28.4681 46.6999C27.5818 46.6999 26.8728 45.9909 26.8728 45.1046C26.8728 44.2183 27.5818 43.5093 28.4681 43.5093C29.3544 43.5093 30.0634 44.2183 30.0634 45.1046Z" fill="#619E90"/>
<path d="M32.0576 50.3556C32.0576 51.1311 31.4151 51.7736 30.6174 51.7736C29.8419 51.7736 29.1993 51.1311 29.1993 50.3556C29.1993 49.5579 29.8419 48.9375 30.6174 48.9375C31.4151 48.9375 32.0576 49.5579 32.0576 50.3556Z" fill="#619E90"/>
</g>
<!-- New Text for AsthaTherapy -->
<text x="60" y="44" font-family="Arial, Helvetica, sans-serif" font-size="32" font-weight="bold" fill="#153C33">Astha<tspan fill="#619E90">Therapy</tspan></text>
<defs>
<clipPath id="clip0_106_34">
<rect width="52.2909" height="48.7458" fill="white" transform="translate(2.85449 5)"/>
</clipPath>
</defs>
</svg>
